<?xml version="1.0" encoding="utf-8" standalone="no"?>
<!DOCTYPE svg PUBLIC "-//W3C//DTD SVG 1.1//EN"
  "http://www.w3.org/Graphics/SVG/1.1/DTD/svg11.dtd">
<!-- Created with matplotlib (http://matplotlib.org/) -->
<svg height="360pt" version="1.1" viewBox="0 0 936 360" width="936pt" xmlns="http://www.w3.org/2000/svg" xmlns:xlink="http://www.w3.org/1999/xlink">
 <defs>
  <style type="text/css">
*{stroke-linecap:butt;stroke-linejoin:round;stroke-miterlimit:100000;}
  </style>
 </defs>
 <g id="figure_1">
  <g id="patch_1">
   <path d="M 0 360 
L 936 360 
L 936 0 
L 0 0 
z
" style="fill:#ffffff;"/>
  </g>
  <g id="axes_1">
   <g id="patch_2">
    <path d="M 117 288 
L 842.4 288 
L 842.4 36 
L 117 36 
z
" style="fill:#ffffff;"/>
   </g>
   <g id="PolyCollection_1">
    <defs>
     <path d="M 117 -72 
L 117 -85.801224 
L 121.052514 -82.833228 
L 125.105028 -83.052972 
L 129.157542 -78.962488 
L 133.210056 -81.892603 
L 137.26257 -84.502839 
L 141.315084 -90.149998 
L 145.367598 -86.027237 
L 149.420112 -90.904607 
L 153.472626 -97.223113 
L 157.52514 -89.447361 
L 161.577654 -128.772556 
L 165.630168 -101.679451 
L 169.682682 -117.567729 
L 173.735196 -130.684369 
L 177.787709 -93.00919 
L 181.840223 -110.786388 
L 185.892737 -82.959309 
L 189.945251 -97.301294 
L 193.997765 -95.878623 
L 198.050279 -110.78785 
L 202.102793 -100.30845 
L 206.155307 -192.44587 
L 210.207821 -105.255694 
L 214.260335 -85.411611 
L 218.312849 -107.882482 
L 222.365363 -93.127932 
L 226.417877 -97.216783 
L 230.470391 -88.697087 
L 234.522905 -88.690938 
L 238.575419 -88.200132 
L 242.627933 -81.98924 
L 246.680447 -82.984529 
L 250.732961 -89.963457 
L 254.785475 -88.686603 
L 258.837989 -83.750175 
L 262.890503 -88.287526 
L 266.943017 -82.41137 
L 270.995531 -90.243016 
L 275.048045 -109.708947 
L 279.100559 -203.096337 
L 283.153073 -322.846102 
L 287.205587 -313.561807 
L 291.258101 -320.085896 
L 295.310615 -232.696166 
L 299.363128 -82.113778 
L 303.415642 -124.693311 
L 307.468156 -112.955836 
L 311.52067 -145.743193 
L 315.573184 -168.743465 
L 319.625698 -195.262675 
L 323.678212 -123.892173 
L 327.730726 -82.618988 
L 331.78324 -97.853355 
L 335.835754 -88.918484 
L 339.888268 -95.700771 
L 343.940782 -106.007753 
L 347.993296 -92.969797 
L 352.04581 -83.091256 
L 356.098324 -89.124358 
L 360.150838 -89.969485 
L 364.203352 -89.485877 
L 368.255866 -88.630085 
L 372.30838 -88.018017 
L 376.360894 -85.297899 
L 380.413408 -83.672378 
L 384.465922 -79.335609 
L 388.518436 -83.678648 
L 392.57095 -94.614288 
L 396.623464 -111.284159 
L 400.675978 -95.4373 
L 404.728492 -92.240469 
L 408.781006 -81.000543 
L 412.83352 -82.658804 
L 416.886034 -96.823915 
L 420.938547 -111.539868 
L 424.991061 -102.173875 
L 429.043575 -94.174145 
L 433.096089 -108.460378 
L 437.148603 -95.722292 
L 441.201117 -88.067087 
L 445.253631 -95.8317 
L 449.306145 -113.242955 
L 453.358659 -148.519014 
L 457.411173 -100.69268 
L 461.463687 -93.070325 
L 465.516201 -163.202923 
L 469.568715 -92.226276 
L 473.621229 -89.642046 
L 477.673743 -92.792177 
L 481.726257 -85.406783 
L 485.778771 -88.587144 
L 489.831285 -84.579689 
L 493.883799 -79.580624 
L 497.936313 -83.206027 
L 501.988827 -117.235079 
L 506.041341 -116.00932 
L 510.093855 -103.317733 
L 514.146369 -102.698126 
L 518.198883 -93.810912 
L 522.251397 -82.005892 
L 526.303911 -79.658955 
L 530.356425 -119.64569 
L 534.408939 -127.439103 
L 538.461453 -108.47442 
L 542.513966 -88.152 
L 546.56648 -93.90768 
L 550.618994 -83.678708 
L 554.671508 -79.935571 
L 558.724022 -86.512781 
L 562.776536 -94.353489 
L 566.82905 -85.952172 
L 570.881564 -125.919261 
L 574.934078 -93.786862 
L 578.986592 -85.342674 
L 583.039106 -80.043155 
L 587.09162 -88.436307 
L 591.144134 -105.292718 
L 595.196648 -90.294142 
L 599.249162 -94.559484 
L 603.301676 -83.748371 
L 607.35419 -92.020825 
L 611.406704 -78.324968 
L 615.459218 -124.998271 
L 619.511732 -90.069579 
L 623.564246 -87.108922 
L 627.61676 -94.773371 
L 631.669274 -91.374355 
L 635.721788 -79.910724 
L 639.774302 -80.9485 
L 643.826816 -86.667872 
L 647.87933 -88.509861 
L 651.931844 -81.674099 
L 655.984358 -89.065228 
L 660.036872 -103.376218 
L 664.089385 -115.719672 
L 668.141899 -81.224611 
L 672.194413 -100.607927 
L 676.246927 -87.336317 
L 680.299441 -82.290239 
L 684.351955 -86.348759 
L 688.404469 -87.804976 
L 692.456983 -85.818128 
L 696.509497 -78.018375 
L 700.562011 -85.369154 
L 704.614525 -87.66052 
L 708.667039 -88.307253 
L 712.719553 -93.451792 
L 716.772067 -91.311415 
L 720.824581 -81.152711 
L 724.877095 -88.427537 
L 728.929609 -92.29359 
L 732.982123 -95.668163 
L 737.034637 -95.738521 
L 741.087151 -89.964596 
L 745.139665 -91.712871 
L 749.192179 -82.899091 
L 753.244693 -80.115267 
L 757.297207 -130.953455 
L 761.349721 -123.787593 
L 765.402235 -91.589492 
L 769.454749 -117.320325 
L 773.507263 -96.95684 
L 777.559777 -102.017373 
L 781.612291 -82.430603 
L 785.664804 -129.843183 
L 789.717318 -113.87608 
L 793.769832 -111.507824 
L 797.822346 -167.777096 
L 801.87486 -84.678332 
L 805.927374 -86.095529 
L 809.979888 -95.447612 
L 814.032402 -112.425759 
L 818.084916 -154.985848 
L 822.13743 -306.907636 
L 826.189944 -256.449767 
L 830.242458 -85.293837 
L 834.294972 -86.470636 
L 838.347486 -78.255779 
L 842.4 -91.354759 
L 842.4 -72 
L 842.4 -72 
L 838.347486 -72 
L 834.294972 -72 
L 830.242458 -72 
L 826.189944 -72 
L 822.13743 -72 
L 818.084916 -72 
L 814.032402 -72 
L 809.979888 -72 
L 805.927374 -72 
L 801.87486 -72 
L 797.822346 -72 
L 793.769832 -72 
L 789.717318 -72 
L 785.664804 -72 
L 781.612291 -72 
L 777.559777 -72 
L 773.507263 -72 
L 769.454749 -72 
L 765.402235 -72 
L 761.349721 -72 
L 757.297207 -72 
L 753.244693 -72 
L 749.192179 -72 
L 745.139665 -72 
L 741.087151 -72 
L 737.034637 -72 
L 732.982123 -72 
L 728.929609 -72 
L 724.877095 -72 
L 720.824581 -72 
L 716.772067 -72 
L 712.719553 -72 
L 708.667039 -72 
L 704.614525 -72 
L 700.562011 -72 
L 696.509497 -72 
L 692.456983 -72 
L 688.404469 -72 
L 684.351955 -72 
L 680.299441 -72 
L 676.246927 -72 
L 672.194413 -72 
L 668.141899 -72 
L 664.089385 -72 
L 660.036872 -72 
L 655.984358 -72 
L 651.931844 -72 
L 647.87933 -72 
L 643.826816 -72 
L 639.774302 -72 
L 635.721788 -72 
L 631.669274 -72 
L 627.61676 -72 
L 623.564246 -72 
L 619.511732 -72 
L 615.459218 -72 
L 611.406704 -72 
L 607.35419 -72 
L 603.301676 -72 
L 599.249162 -72 
L 595.196648 -72 
L 591.144134 -72 
L 587.09162 -72 
L 583.039106 -72 
L 578.986592 -72 
L 574.934078 -72 
L 570.881564 -72 
L 566.82905 -72 
L 562.776536 -72 
L 558.724022 -72 
L 554.671508 -72 
L 550.618994 -72 
L 546.56648 -72 
L 542.513966 -72 
L 538.461453 -72 
L 534.408939 -72 
L 530.356425 -72 
L 526.303911 -72 
L 522.251397 -72 
L 518.198883 -72 
L 514.146369 -72 
L 510.093855 -72 
L 506.041341 -72 
L 501.988827 -72 
L 497.936313 -72 
L 493.883799 -72 
L 489.831285 -72 
L 485.778771 -72 
L 481.726257 -72 
L 477.673743 -72 
L 473.621229 -72 
L 469.568715 -72 
L 465.516201 -72 
L 461.463687 -72 
L 457.411173 -72 
L 453.358659 -72 
L 449.306145 -72 
L 445.253631 -72 
L 441.201117 -72 
L 437.148603 -72 
L 433.096089 -72 
L 429.043575 -72 
L 424.991061 -72 
L 420.938547 -72 
L 416.886034 -72 
L 412.83352 -72 
L 408.781006 -72 
L 404.728492 -72 
L 400.675978 -72 
L 396.623464 -72 
L 392.57095 -72 
L 388.518436 -72 
L 384.465922 -72 
L 380.413408 -72 
L 376.360894 -72 
L 372.30838 -72 
L 368.255866 -72 
L 364.203352 -72 
L 360.150838 -72 
L 356.098324 -72 
L 352.04581 -72 
L 347.993296 -72 
L 343.940782 -72 
L 339.888268 -72 
L 335.835754 -72 
L 331.78324 -72 
L 327.730726 -72 
L 323.678212 -72 
L 319.625698 -72 
L 315.573184 -72 
L 311.52067 -72 
L 307.468156 -72 
L 303.415642 -72 
L 299.363128 -72 
L 295.310615 -72 
L 291.258101 -72 
L 287.205587 -72 
L 283.153073 -72 
L 279.100559 -72 
L 275.048045 -72 
L 270.995531 -72 
L 266.943017 -72 
L 262.890503 -72 
L 258.837989 -72 
L 254.785475 -72 
L 250.732961 -72 
L 246.680447 -72 
L 242.627933 -72 
L 238.575419 -72 
L 234.522905 -72 
L 230.470391 -72 
L 226.417877 -72 
L 222.365363 -72 
L 218.312849 -72 
L 214.260335 -72 
L 210.207821 -72 
L 206.155307 -72 
L 202.102793 -72 
L 198.050279 -72 
L 193.997765 -72 
L 189.945251 -72 
L 185.892737 -72 
L 181.840223 -72 
L 177.787709 -72 
L 173.735196 -72 
L 169.682682 -72 
L 165.630168 -72 
L 161.577654 -72 
L 157.52514 -72 
L 153.472626 -72 
L 149.420112 -72 
L 145.367598 -72 
L 141.315084 -72 
L 137.26257 -72 
L 133.210056 -72 
L 129.157542 -72 
L 125.105028 -72 
L 121.052514 -72 
L 117 -72 
z
" id="m29ab4a652f" style="stroke:#cccccc;"/>
    </defs>
    <g clip-path="url(#p7f15c55fa9)">
     <use style="fill:#cccccc;stroke:#cccccc;" x="0.0" xlink:href="#m29ab4a652f" y="360.0"/>
    </g>
   </g>
   <g id="line2d_1">
    <path clip-path="url(#p7f15c55fa9)" d="M 117 274.198776 
L 121.052514 277.166772 
L 125.105028 276.947028 
L 129.157542 281.037512 
L 133.210056 278.107397 
L 137.26257 275.497161 
L 141.315084 269.850002 
L 145.367598 273.972763 
L 149.420112 269.095393 
L 153.472626 262.776887 
L 157.52514 270.552639 
L 161.577654 231.227444 
L 165.630168 258.320549 
L 169.682682 242.432271 
L 173.735196 229.315631 
L 177.787709 266.99081 
L 181.840223 249.213612 
L 185.892737 277.040691 
L 189.945251 262.698706 
L 193.997765 264.121377 
L 198.050279 249.21215 
L 202.102793 259.69155 
L 206.155307 167.55413 
L 210.207821 254.744306 
L 214.260335 274.588389 
L 218.312849 252.117518 
L 222.365363 266.872068 
L 226.417877 262.783217 
L 230.470391 271.302913 
L 234.522905 271.309062 
L 238.575419 271.799868 
L 242.627933 278.01076 
L 246.680447 277.015471 
L 250.732961 270.036543 
L 254.785475 271.313397 
L 258.837989 276.249825 
L 262.890503 271.712474 
L 266.943017 277.58863 
L 270.995531 269.756984 
L 275.048045 250.291053 
L 279.100559 156.903663 
L 283.153073 37.153898 
L 287.205587 46.438193 
L 291.258101 39.914104 
L 295.310615 127.303834 
L 299.363128 277.886222 
L 303.415642 235.306689 
L 307.468156 247.044164 
L 311.52067 214.256807 
L 315.573184 191.256535 
L 319.625698 164.737325 
L 323.678212 236.107827 
L 327.730726 277.381012 
L 331.78324 262.146645 
L 335.835754 271.081516 
L 339.888268 264.299229 
L 343.940782 253.992247 
L 347.993296 267.030203 
L 352.04581 276.908744 
L 356.098324 270.875642 
L 360.150838 270.030515 
L 364.203352 270.514123 
L 368.255866 271.369915 
L 372.30838 271.981983 
L 376.360894 274.702101 
L 380.413408 276.327622 
L 384.465922 280.664391 
L 388.518436 276.321352 
L 392.57095 265.385712 
L 396.623464 248.715841 
L 400.675978 264.5627 
L 404.728492 267.759531 
L 408.781006 278.999457 
L 412.83352 277.341196 
L 416.886034 263.176085 
L 420.938547 248.460132 
L 424.991061 257.826125 
L 429.043575 265.825855 
L 433.096089 251.539622 
L 437.148603 264.277708 
L 441.201117 271.932913 
L 445.253631 264.1683 
L 449.306145 246.757045 
L 453.358659 211.480986 
L 457.411173 259.30732 
L 461.463687 266.929675 
L 465.516201 196.797077 
L 469.568715 267.773724 
L 473.621229 270.357954 
L 477.673743 267.207823 
L 481.726257 274.593217 
L 485.778771 271.412856 
L 489.831285 275.420311 
L 493.883799 280.419376 
L 497.936313 276.793973 
L 501.988827 242.764921 
L 506.041341 243.99068 
L 510.093855 256.682267 
L 514.146369 257.301874 
L 518.198883 266.189088 
L 522.251397 277.994108 
L 526.303911 280.341045 
L 530.356425 240.35431 
L 534.408939 232.560897 
L 538.461453 251.52558 
L 542.513966 271.848 
L 546.56648 266.09232 
L 550.618994 276.321292 
L 554.671508 280.064429 
L 558.724022 273.487219 
L 562.776536 265.646511 
L 566.82905 274.047828 
L 570.881564 234.080739 
L 574.934078 266.213138 
L 578.986592 274.657326 
L 583.039106 279.956845 
L 587.09162 271.563693 
L 591.144134 254.707282 
L 595.196648 269.705858 
L 599.249162 265.440516 
L 603.301676 276.251629 
L 607.35419 267.979175 
L 611.406704 281.675032 
L 615.459218 235.001729 
L 619.511732 269.930421 
L 623.564246 272.891078 
L 627.61676 265.226629 
L 631.669274 268.625645 
L 635.721788 280.089276 
L 639.774302 279.0515 
L 643.826816 273.332128 
L 647.87933 271.490139 
L 651.931844 278.325901 
L 655.984358 270.934772 
L 660.036872 256.623782 
L 664.089385 244.280328 
L 668.141899 278.775389 
L 672.194413 259.392073 
L 676.246927 272.663683 
L 680.299441 277.709761 
L 684.351955 273.651241 
L 688.404469 272.195024 
L 692.456983 274.181872 
L 696.509497 281.981625 
L 700.562011 274.630846 
L 704.614525 272.33948 
L 708.667039 271.692747 
L 712.719553 266.548208 
L 716.772067 268.688585 
L 720.824581 278.847289 
L 724.877095 271.572463 
L 728.929609 267.70641 
L 732.982123 264.331837 
L 737.034637 264.261479 
L 741.087151 270.035404 
L 745.139665 268.287129 
L 749.192179 277.100909 
L 753.244693 279.884733 
L 757.297207 229.046545 
L 761.349721 236.212407 
L 765.402235 268.410508 
L 769.454749 242.679675 
L 773.507263 263.04316 
L 777.559777 257.982627 
L 781.612291 277.569397 
L 785.664804 230.156817 
L 789.717318 246.12392 
L 793.769832 248.492176 
L 797.822346 192.222904 
L 801.87486 275.321668 
L 805.927374 273.904471 
L 809.979888 264.552388 
L 814.032402 247.574241 
L 818.084916 205.014152 
L 822.13743 53.092364 
L 826.189944 103.550233 
L 830.242458 274.706163 
L 834.294972 273.529364 
L 838.347486 281.744221 
L 842.4 268.645241 
L 842.4 268.645241 
" style="fill:none;stroke:#808080;stroke-linecap:square;"/>
   </g>
   <g id="patch_3">
    <path d="M 117 36 
L 842.4 36 
" style="fill:none;stroke:#000000;stroke-linecap:square;stroke-linejoin:miter;"/>
   </g>
   <g id="patch_4">
    <path d="M 842.4 288 
L 842.4 36 
" style="fill:none;stroke:#000000;stroke-linecap:square;stroke-linejoin:miter;"/>
   </g>
   <g id="patch_5">
    <path d="M 117 288 
L 842.4 288 
" style="fill:none;stroke:#000000;stroke-linecap:square;stroke-linejoin:miter;"/>
   </g>
   <g id="patch_6">
    <path d="M 117 288 
L 117 36 
" style="fill:none;stroke:#000000;stroke-linecap:square;stroke-linejoin:miter;"/>
   </g>
   <g id="matplotlib.axis_1">
    <g id="xtick_1">
     <g id="line2d_2">
      <defs>
       <path d="M 0 0 
L 0 -4 
" id="m0ce62eea80" style="stroke:#000000;stroke-width:0.5;"/>
      </defs>
      <g>
       <use style="stroke:#000000;stroke-width:0.5;" x="222.365363128" xlink:href="#m0ce62eea80" y="288.0"/>
      </g>
     </g>
     <g id="line2d_3">
      <defs>
       <path d="M 0 0 
L 0 4 
" id="ma758ba826b" style="stroke:#000000;stroke-width:0.5;"/>
      </defs>
      <g>
       <use style="stroke:#000000;stroke-width:0.5;" x="222.365363128" xlink:href="#ma758ba826b" y="36.0"/>
      </g>
     </g>
     <g id="text_1">
      <!-- Jun '16 -->
      <defs>
       <path id="BitstreamVeraSans-Roman-20"/>
       <path d="M 12.40625 8.296875 
L 28.515625 8.296875 
L 28.515625 63.921875 
L 10.984375 60.40625 
L 10.984375 69.390625 
L 28.421875 72.90625 
L 38.28125 72.90625 
L 38.28125 8.296875 
L 54.390625 8.296875 
L 54.390625 0 
L 12.40625 0 
z
" id="BitstreamVeraSans-Roman-31"/>
       <path d="M 33.015625 40.375 
Q 26.375 40.375 22.484375 35.828125 
Q 18.609375 31.296875 18.609375 23.390625 
Q 18.609375 15.53125 22.484375 10.953125 
Q 26.375 6.390625 33.015625 6.390625 
Q 39.65625 6.390625 43.53125 10.953125 
Q 47.40625 15.53125 47.40625 23.390625 
Q 47.40625 31.296875 43.53125 35.828125 
Q 39.65625 40.375 33.015625 40.375 
M 52.59375 71.296875 
L 52.59375 62.3125 
Q 48.875 64.0625 45.09375 64.984375 
Q 41.3125 65.921875 37.59375 65.921875 
Q 27.828125 65.921875 22.671875 59.328125 
Q 17.53125 52.734375 16.796875 39.40625 
Q 19.671875 43.65625 24.015625 45.921875 
Q 28.375 48.1875 33.59375 48.1875 
Q 44.578125 48.1875 50.953125 41.515625 
Q 57.328125 34.859375 57.328125 23.390625 
Q 57.328125 12.15625 50.6875 5.359375 
Q 44.046875 -1.421875 33.015625 -1.421875 
Q 20.359375 -1.421875 13.671875 8.265625 
Q 6.984375 17.96875 6.984375 36.375 
Q 6.984375 53.65625 15.1875 63.9375 
Q 23.390625 74.21875 37.203125 74.21875 
Q 40.921875 74.21875 44.703125 73.484375 
Q 48.484375 72.75 52.59375 71.296875 
" id="BitstreamVeraSans-Roman-36"/>
       <path d="M 9.8125 72.90625 
L 19.671875 72.90625 
L 19.671875 5.078125 
Q 19.671875 -8.109375 14.671875 -14.0625 
Q 9.671875 -20.015625 -1.421875 -20.015625 
L -5.171875 -20.015625 
L -5.171875 -11.71875 
L -2.09375 -11.71875 
Q 4.4375 -11.71875 7.125 -8.046875 
Q 9.8125 -4.390625 9.8125 5.078125 
z
" id="BitstreamVeraSans-Roman-4a"/>
       <path d="M 17.921875 72.90625 
L 17.921875 45.796875 
L 9.625 45.796875 
L 9.625 72.90625 
z
" id="BitstreamVeraSans-Roman-27"/>
       <path d="M 54.890625 33.015625 
L 54.890625 0 
L 45.90625 0 
L 45.90625 32.71875 
Q 45.90625 40.484375 42.875 44.328125 
Q 39.84375 48.1875 33.796875 48.1875 
Q 26.515625 48.1875 22.3125 43.546875 
Q 18.109375 38.921875 18.109375 30.90625 
L 18.109375 0 
L 9.078125 0 
L 9.078125 54.6875 
L 18.109375 54.6875 
L 18.109375 46.1875 
Q 21.34375 51.125 25.703125 53.5625 
Q 30.078125 56 35.796875 56 
Q 45.21875 56 50.046875 50.171875 
Q 54.890625 44.34375 54.890625 33.015625 
" id="BitstreamVeraSans-Roman-6e"/>
       <path d="M 8.5 21.578125 
L 8.5 54.6875 
L 17.484375 54.6875 
L 17.484375 21.921875 
Q 17.484375 14.15625 20.5 10.265625 
Q 23.53125 6.390625 29.59375 6.390625 
Q 36.859375 6.390625 41.078125 11.03125 
Q 45.3125 15.671875 45.3125 23.6875 
L 45.3125 54.6875 
L 54.296875 54.6875 
L 54.296875 0 
L 45.3125 0 
L 45.3125 8.40625 
Q 42.046875 3.421875 37.71875 1 
Q 33.40625 -1.421875 27.6875 -1.421875 
Q 18.265625 -1.421875 13.375 4.4375 
Q 8.5 10.296875 8.5 21.578125 
" id="BitstreamVeraSans-Roman-75"/>
      </defs>
      <g transform="translate(185.496301973 320.462465385)rotate(-30.0)scale(0.12 -0.12)">
       <use xlink:href="#BitstreamVeraSans-Roman-4a"/>
       <use x="29.4921875" xlink:href="#BitstreamVeraSans-Roman-75"/>
       <use x="92.87109375" xlink:href="#BitstreamVeraSans-Roman-6e"/>
       <use x="156.25" xlink:href="#BitstreamVeraSans-Roman-20"/>
       <use x="188.037109375" xlink:href="#BitstreamVeraSans-Roman-27"/>
       <use x="215.52734375" xlink:href="#BitstreamVeraSans-Roman-31"/>
       <use x="279.150390625" xlink:href="#BitstreamVeraSans-Roman-36"/>
      </g>
     </g>
    </g>
    <g id="xtick_2">
     <g id="line2d_4">
      <g>
       <use style="stroke:#000000;stroke-width:0.5;" x="343.940782123" xlink:href="#m0ce62eea80" y="288.0"/>
      </g>
     </g>
     <g id="line2d_5">
      <g>
       <use style="stroke:#000000;stroke-width:0.5;" x="343.940782123" xlink:href="#ma758ba826b" y="36.0"/>
      </g>
     </g>
     <g id="text_2">
      <!-- Jul '16 -->
      <defs>
       <path d="M 9.421875 75.984375 
L 18.40625 75.984375 
L 18.40625 0 
L 9.421875 0 
z
" id="BitstreamVeraSans-Roman-6c"/>
      </defs>
      <g transform="translate(310.770731973 318.326840385)rotate(-30.0)scale(0.12 -0.12)">
       <use xlink:href="#BitstreamVeraSans-Roman-4a"/>
       <use x="29.4921875" xlink:href="#BitstreamVeraSans-Roman-75"/>
       <use x="92.87109375" xlink:href="#BitstreamVeraSans-Roman-6c"/>
       <use x="120.654296875" xlink:href="#BitstreamVeraSans-Roman-20"/>
       <use x="152.44140625" xlink:href="#BitstreamVeraSans-Roman-27"/>
       <use x="179.931640625" xlink:href="#BitstreamVeraSans-Roman-31"/>
       <use x="243.5546875" xlink:href="#BitstreamVeraSans-Roman-36"/>
      </g>
     </g>
    </g>
    <g id="xtick_3">
     <g id="line2d_6">
      <g>
       <use style="stroke:#000000;stroke-width:0.5;" x="469.568715083" xlink:href="#m0ce62eea80" y="288.0"/>
      </g>
     </g>
     <g id="line2d_7">
      <g>
       <use style="stroke:#000000;stroke-width:0.5;" x="469.568715083" xlink:href="#ma758ba826b" y="36.0"/>
      </g>
     </g>
     <g id="text_3">
      <!-- Aug '16 -->
      <defs>
       <path d="M 45.40625 27.984375 
Q 45.40625 37.75 41.375 43.109375 
Q 37.359375 48.484375 30.078125 48.484375 
Q 22.859375 48.484375 18.828125 43.109375 
Q 14.796875 37.75 14.796875 27.984375 
Q 14.796875 18.265625 18.828125 12.890625 
Q 22.859375 7.515625 30.078125 7.515625 
Q 37.359375 7.515625 41.375 12.890625 
Q 45.40625 18.265625 45.40625 27.984375 
M 54.390625 6.78125 
Q 54.390625 -7.171875 48.1875 -13.984375 
Q 42 -20.796875 29.203125 -20.796875 
Q 24.46875 -20.796875 20.265625 -20.09375 
Q 16.0625 -19.390625 12.109375 -17.921875 
L 12.109375 -9.1875 
Q 16.0625 -11.328125 19.921875 -12.34375 
Q 23.78125 -13.375 27.78125 -13.375 
Q 36.625 -13.375 41.015625 -8.765625 
Q 45.40625 -4.15625 45.40625 5.171875 
L 45.40625 9.625 
Q 42.625 4.78125 38.28125 2.390625 
Q 33.9375 0 27.875 0 
Q 17.828125 0 11.671875 7.65625 
Q 5.515625 15.328125 5.515625 27.984375 
Q 5.515625 40.671875 11.671875 48.328125 
Q 17.828125 56 27.875 56 
Q 33.9375 56 38.28125 53.609375 
Q 42.625 51.21875 45.40625 46.390625 
L 45.40625 54.6875 
L 54.390625 54.6875 
z
" id="BitstreamVeraSans-Roman-67"/>
       <path d="M 34.1875 63.1875 
L 20.796875 26.90625 
L 47.609375 26.90625 
z
M 28.609375 72.90625 
L 39.796875 72.90625 
L 67.578125 0 
L 57.328125 0 
L 50.6875 18.703125 
L 17.828125 18.703125 
L 11.1875 0 
L 0.78125 0 
z
" id="BitstreamVeraSans-Roman-41"/>
      </defs>
      <g transform="translate(428.645031241 322.803402885)rotate(-30.0)scale(0.12 -0.12)">
       <use xlink:href="#BitstreamVeraSans-Roman-41"/>
       <use x="68.408203125" xlink:href="#BitstreamVeraSans-Roman-75"/>
       <use x="131.787109375" xlink:href="#BitstreamVeraSans-Roman-67"/>
       <use x="195.263671875" xlink:href="#BitstreamVeraSans-Roman-20"/>
       <use x="227.05078125" xlink:href="#BitstreamVeraSans-Roman-27"/>
       <use x="254.541015625" xlink:href="#BitstreamVeraSans-Roman-31"/>
       <use x="318.1640625" xlink:href="#BitstreamVeraSans-Roman-36"/>
      </g>
     </g>
    </g>
    <g id="xtick_4">
     <g id="line2d_8">
      <g>
       <use style="stroke:#000000;stroke-width:0.5;" x="595.196648045" xlink:href="#m0ce62eea80" y="288.0"/>
      </g>
     </g>
     <g id="line2d_9">
      <g>
       <use style="stroke:#000000;stroke-width:0.5;" x="595.196648045" xlink:href="#ma758ba826b" y="36.0"/>
      </g>
     </g>
     <g id="text_4">
      <!-- Sep '16 -->
      <defs>
       <path d="M 56.203125 29.59375 
L 56.203125 25.203125 
L 14.890625 25.203125 
Q 15.484375 15.921875 20.484375 11.0625 
Q 25.484375 6.203125 34.421875 6.203125 
Q 39.59375 6.203125 44.453125 7.46875 
Q 49.3125 8.734375 54.109375 11.28125 
L 54.109375 2.78125 
Q 49.265625 0.734375 44.1875 -0.34375 
Q 39.109375 -1.421875 33.890625 -1.421875 
Q 20.796875 -1.421875 13.15625 6.1875 
Q 5.515625 13.8125 5.515625 26.8125 
Q 5.515625 40.234375 12.765625 48.109375 
Q 20.015625 56 32.328125 56 
Q 43.359375 56 49.78125 48.890625 
Q 56.203125 41.796875 56.203125 29.59375 
M 47.21875 32.234375 
Q 47.125 39.59375 43.09375 43.984375 
Q 39.0625 48.390625 32.421875 48.390625 
Q 24.90625 48.390625 20.390625 44.140625 
Q 15.875 39.890625 15.1875 32.171875 
z
" id="BitstreamVeraSans-Roman-65"/>
       <path d="M 53.515625 70.515625 
L 53.515625 60.890625 
Q 47.90625 63.578125 42.921875 64.890625 
Q 37.9375 66.21875 33.296875 66.21875 
Q 25.25 66.21875 20.875 63.09375 
Q 16.5 59.96875 16.5 54.203125 
Q 16.5 49.359375 19.40625 46.890625 
Q 22.3125 44.4375 30.421875 42.921875 
L 36.375 41.703125 
Q 47.40625 39.59375 52.65625 34.296875 
Q 57.90625 29 57.90625 20.125 
Q 57.90625 9.515625 50.796875 4.046875 
Q 43.703125 -1.421875 29.984375 -1.421875 
Q 24.8125 -1.421875 18.96875 -0.25 
Q 13.140625 0.921875 6.890625 3.21875 
L 6.890625 13.375 
Q 12.890625 10.015625 18.65625 8.296875 
Q 24.421875 6.59375 29.984375 6.59375 
Q 38.421875 6.59375 43.015625 9.90625 
Q 47.609375 13.234375 47.609375 19.390625 
Q 47.609375 24.75 44.3125 27.78125 
Q 41.015625 30.8125 33.5 32.328125 
L 27.484375 33.5 
Q 16.453125 35.6875 11.515625 40.375 
Q 6.59375 45.0625 6.59375 53.421875 
Q 6.59375 63.09375 13.40625 68.65625 
Q 20.21875 74.21875 32.171875 74.21875 
Q 37.3125 74.21875 42.625 73.28125 
Q 47.953125 72.359375 53.515625 70.515625 
" id="BitstreamVeraSans-Roman-53"/>
       <path d="M 18.109375 8.203125 
L 18.109375 -20.796875 
L 9.078125 -20.796875 
L 9.078125 54.6875 
L 18.109375 54.6875 
L 18.109375 46.390625 
Q 20.953125 51.265625 25.265625 53.625 
Q 29.59375 56 35.59375 56 
Q 45.5625 56 51.78125 48.09375 
Q 58.015625 40.1875 58.015625 27.296875 
Q 58.015625 14.40625 51.78125 6.484375 
Q 45.5625 -1.421875 35.59375 -1.421875 
Q 29.59375 -1.421875 25.265625 0.953125 
Q 20.953125 3.328125 18.109375 8.203125 
M 48.6875 27.296875 
Q 48.6875 37.203125 44.609375 42.84375 
Q 40.53125 48.484375 33.40625 48.484375 
Q 26.265625 48.484375 22.1875 42.84375 
Q 18.109375 37.203125 18.109375 27.296875 
Q 18.109375 17.390625 22.1875 11.75 
Q 26.265625 6.109375 33.40625 6.109375 
Q 40.53125 6.109375 44.609375 11.75 
Q 48.6875 17.390625 48.6875 27.296875 
" id="BitstreamVeraSans-Roman-70"/>
      </defs>
      <g transform="translate(554.976068577 322.397465385)rotate(-30.0)scale(0.12 -0.12)">
       <use xlink:href="#BitstreamVeraSans-Roman-53"/>
       <use x="63.4765625" xlink:href="#BitstreamVeraSans-Roman-65"/>
       <use x="125.0" xlink:href="#BitstreamVeraSans-Roman-70"/>
       <use x="188.4765625" xlink:href="#BitstreamVeraSans-Roman-20"/>
       <use x="220.263671875" xlink:href="#BitstreamVeraSans-Roman-27"/>
       <use x="247.75390625" xlink:href="#BitstreamVeraSans-Roman-31"/>
       <use x="311.376953125" xlink:href="#BitstreamVeraSans-Roman-36"/>
      </g>
     </g>
    </g>
    <g id="xtick_5">
     <g id="line2d_10">
      <g>
       <use style="stroke:#000000;stroke-width:0.5;" x="716.772067039" xlink:href="#m0ce62eea80" y="288.0"/>
      </g>
     </g>
     <g id="line2d_11">
      <g>
       <use style="stroke:#000000;stroke-width:0.5;" x="716.772067039" xlink:href="#ma758ba826b" y="36.0"/>
      </g>
     </g>
     <g id="text_5">
      <!-- Oct '16 -->
      <defs>
       <path d="M 39.40625 66.21875 
Q 28.65625 66.21875 22.328125 58.203125 
Q 16.015625 50.203125 16.015625 36.375 
Q 16.015625 22.609375 22.328125 14.59375 
Q 28.65625 6.59375 39.40625 6.59375 
Q 50.140625 6.59375 56.421875 14.59375 
Q 62.703125 22.609375 62.703125 36.375 
Q 62.703125 50.203125 56.421875 58.203125 
Q 50.140625 66.21875 39.40625 66.21875 
M 39.40625 74.21875 
Q 54.734375 74.21875 63.90625 63.9375 
Q 73.09375 53.65625 73.09375 36.375 
Q 73.09375 19.140625 63.90625 8.859375 
Q 54.734375 -1.421875 39.40625 -1.421875 
Q 24.03125 -1.421875 14.8125 8.828125 
Q 5.609375 19.09375 5.609375 36.375 
Q 5.609375 53.65625 14.8125 63.9375 
Q 24.03125 74.21875 39.40625 74.21875 
" id="BitstreamVeraSans-Roman-4f"/>
       <path d="M 18.3125 70.21875 
L 18.3125 54.6875 
L 36.8125 54.6875 
L 36.8125 47.703125 
L 18.3125 47.703125 
L 18.3125 18.015625 
Q 18.3125 11.328125 20.140625 9.421875 
Q 21.96875 7.515625 27.59375 7.515625 
L 36.8125 7.515625 
L 36.8125 0 
L 27.59375 0 
Q 17.1875 0 13.234375 3.875 
Q 9.28125 7.765625 9.28125 18.015625 
L 9.28125 47.703125 
L 2.6875 47.703125 
L 2.6875 54.6875 
L 9.28125 54.6875 
L 9.28125 70.21875 
z
" id="BitstreamVeraSans-Roman-74"/>
       <path d="M 48.78125 52.59375 
L 48.78125 44.1875 
Q 44.96875 46.296875 41.140625 47.34375 
Q 37.3125 48.390625 33.40625 48.390625 
Q 24.65625 48.390625 19.8125 42.84375 
Q 14.984375 37.3125 14.984375 27.296875 
Q 14.984375 17.28125 19.8125 11.734375 
Q 24.65625 6.203125 33.40625 6.203125 
Q 37.3125 6.203125 41.140625 7.25 
Q 44.96875 8.296875 48.78125 10.40625 
L 48.78125 2.09375 
Q 45.015625 0.34375 40.984375 -0.53125 
Q 36.96875 -1.421875 32.421875 -1.421875 
Q 20.0625 -1.421875 12.78125 6.34375 
Q 5.515625 14.109375 5.515625 27.296875 
Q 5.515625 40.671875 12.859375 48.328125 
Q 20.21875 56 33.015625 56 
Q 37.15625 56 41.109375 55.140625 
Q 45.0625 54.296875 48.78125 52.59375 
" id="BitstreamVeraSans-Roman-63"/>
      </defs>
      <g transform="translate(678.172037608 321.461840385)rotate(-30.0)scale(0.12 -0.12)">
       <use xlink:href="#BitstreamVeraSans-Roman-4f"/>
       <use x="78.7109375" xlink:href="#BitstreamVeraSans-Roman-63"/>
       <use x="133.69140625" xlink:href="#BitstreamVeraSans-Roman-74"/>
       <use x="172.900390625" xlink:href="#BitstreamVeraSans-Roman-20"/>
       <use x="204.6875" xlink:href="#BitstreamVeraSans-Roman-27"/>
       <use x="232.177734375" xlink:href="#BitstreamVeraSans-Roman-31"/>
       <use x="295.80078125" xlink:href="#BitstreamVeraSans-Roman-36"/>
      </g>
     </g>
    </g>
    <g id="xtick_6">
     <g id="line2d_12">
      <g>
       <use style="stroke:#000000;stroke-width:0.5;" x="842.4" xlink:href="#m0ce62eea80" y="288.0"/>
      </g>
     </g>
     <g id="line2d_13">
      <g>
       <use style="stroke:#000000;stroke-width:0.5;" x="842.4" xlink:href="#ma758ba826b" y="36.0"/>
      </g>
     </g>
     <g id="text_6">
      <!-- Nov '16 -->
      <defs>
       <path d="M 2.984375 54.6875 
L 12.5 54.6875 
L 29.59375 8.796875 
L 46.6875 54.6875 
L 56.203125 54.6875 
L 35.6875 0 
L 23.484375 0 
z
" id="BitstreamVeraSans-Roman-76"/>
       <path d="M 9.8125 72.90625 
L 23.09375 72.90625 
L 55.421875 11.921875 
L 55.421875 72.90625 
L 64.984375 72.90625 
L 64.984375 0 
L 51.703125 0 
L 19.390625 60.984375 
L 19.390625 0 
L 9.8125 0 
z
" id="BitstreamVeraSans-Roman-4e"/>
       <path d="M 30.609375 48.390625 
Q 23.390625 48.390625 19.1875 42.75 
Q 14.984375 37.109375 14.984375 27.296875 
Q 14.984375 17.484375 19.15625 11.84375 
Q 23.34375 6.203125 30.609375 6.203125 
Q 37.796875 6.203125 41.984375 11.859375 
Q 46.1875 17.53125 46.1875 27.296875 
Q 46.1875 37.015625 41.984375 42.703125 
Q 37.796875 48.390625 30.609375 48.390625 
M 30.609375 56 
Q 42.328125 56 49.015625 48.375 
Q 55.71875 40.765625 55.71875 27.296875 
Q 55.71875 13.875 49.015625 6.21875 
Q 42.328125 -1.421875 30.609375 -1.421875 
Q 18.84375 -1.421875 12.171875 6.21875 
Q 5.515625 13.875 5.515625 27.296875 
Q 5.515625 40.765625 12.171875 48.375 
Q 18.84375 56 30.609375 56 
" id="BitstreamVeraSans-Roman-6f"/>
      </defs>
      <g transform="translate(801.484435145 322.798715385)rotate(-30.0)scale(0.12 -0.12)">
       <use xlink:href="#BitstreamVeraSans-Roman-4e"/>
       <use x="74.8046875" xlink:href="#BitstreamVeraSans-Roman-6f"/>
       <use x="135.986328125" xlink:href="#BitstreamVeraSans-Roman-76"/>
       <use x="195.166015625" xlink:href="#BitstreamVeraSans-Roman-20"/>
       <use x="226.953125" xlink:href="#BitstreamVeraSans-Roman-27"/>
       <use x="254.443359375" xlink:href="#BitstreamVeraSans-Roman-31"/>
       <use x="318.06640625" xlink:href="#BitstreamVeraSans-Roman-36"/>
      </g>
     </g>
    </g>
   </g>
   <g id="matplotlib.axis_2">
    <g id="ytick_1">
     <g id="line2d_14">
      <defs>
       <path d="M 0 0 
L 4 0 
" id="ma299b8e25b" style="stroke:#000000;stroke-width:0.5;"/>
      </defs>
      <g>
       <use style="stroke:#000000;stroke-width:0.5;" x="117.0" xlink:href="#ma299b8e25b" y="288.0"/>
      </g>
     </g>
     <g id="text_7">
      <!-- 0.00 MB -->
      <defs>
       <path d="M 31.78125 66.40625 
Q 24.171875 66.40625 20.328125 58.90625 
Q 16.5 51.421875 16.5 36.375 
Q 16.5 21.390625 20.328125 13.890625 
Q 24.171875 6.390625 31.78125 6.390625 
Q 39.453125 6.390625 43.28125 13.890625 
Q 47.125 21.390625 47.125 36.375 
Q 47.125 51.421875 43.28125 58.90625 
Q 39.453125 66.40625 31.78125 66.40625 
M 31.78125 74.21875 
Q 44.046875 74.21875 50.515625 64.515625 
Q 56.984375 54.828125 56.984375 36.375 
Q 56.984375 17.96875 50.515625 8.265625 
Q 44.046875 -1.421875 31.78125 -1.421875 
Q 19.53125 -1.421875 13.0625 8.265625 
Q 6.59375 17.96875 6.59375 36.375 
Q 6.59375 54.828125 13.0625 64.515625 
Q 19.53125 74.21875 31.78125 74.21875 
" id="BitstreamVeraSans-Roman-30"/>
       <path d="M 9.8125 72.90625 
L 24.515625 72.90625 
L 43.109375 23.296875 
L 61.8125 72.90625 
L 76.515625 72.90625 
L 76.515625 0 
L 66.890625 0 
L 66.890625 64.015625 
L 48.09375 14.015625 
L 38.1875 14.015625 
L 19.390625 64.015625 
L 19.390625 0 
L 9.8125 0 
z
" id="BitstreamVeraSans-Roman-4d"/>
       <path d="M 10.6875 12.40625 
L 21 12.40625 
L 21 0 
L 10.6875 0 
z
" id="BitstreamVeraSans-Roman-2e"/>
       <path d="M 19.671875 34.8125 
L 19.671875 8.109375 
L 35.5 8.109375 
Q 43.453125 8.109375 47.28125 11.40625 
Q 51.125 14.703125 51.125 21.484375 
Q 51.125 28.328125 47.28125 31.5625 
Q 43.453125 34.8125 35.5 34.8125 
z
M 19.671875 64.796875 
L 19.671875 42.828125 
L 34.28125 42.828125 
Q 41.5 42.828125 45.03125 45.53125 
Q 48.578125 48.25 48.578125 53.8125 
Q 48.578125 59.328125 45.03125 62.0625 
Q 41.5 64.796875 34.28125 64.796875 
z
M 9.8125 72.90625 
L 35.015625 72.90625 
Q 46.296875 72.90625 52.390625 68.21875 
Q 58.5 63.53125 58.5 54.890625 
Q 58.5 48.1875 55.375 44.234375 
Q 52.25 40.28125 46.1875 39.3125 
Q 53.46875 37.75 57.5 32.78125 
Q 61.53125 27.828125 61.53125 20.40625 
Q 61.53125 10.640625 54.890625 5.3125 
Q 48.25 0 35.984375 0 
L 9.8125 0 
z
" id="BitstreamVeraSans-Roman-42"/>
      </defs>
      <g transform="translate(63.880625 291.31125)scale(0.12 -0.12)">
       <use xlink:href="#BitstreamVeraSans-Roman-30"/>
       <use x="63.623046875" xlink:href="#BitstreamVeraSans-Roman-2e"/>
       <use x="95.41015625" xlink:href="#BitstreamVeraSans-Roman-30"/>
       <use x="159.033203125" xlink:href="#BitstreamVeraSans-Roman-30"/>
       <use x="222.65625" xlink:href="#BitstreamVeraSans-Roman-20"/>
       <use x="254.443359375" xlink:href="#BitstreamVeraSans-Roman-4d"/>
       <use x="340.72265625" xlink:href="#BitstreamVeraSans-Roman-42"/>
      </g>
     </g>
    </g>
    <g id="ytick_2">
     <g id="line2d_15">
      <g>
       <use style="stroke:#000000;stroke-width:0.5;" x="117.0" xlink:href="#ma299b8e25b" y="237.6"/>
      </g>
     </g>
     <g id="text_8">
      <!-- 5.00 MB -->
      <defs>
       <path d="M 10.796875 72.90625 
L 49.515625 72.90625 
L 49.515625 64.59375 
L 19.828125 64.59375 
L 19.828125 46.734375 
Q 21.96875 47.46875 24.109375 47.828125 
Q 26.265625 48.1875 28.421875 48.1875 
Q 40.625 48.1875 47.75 41.5 
Q 54.890625 34.8125 54.890625 23.390625 
Q 54.890625 11.625 47.5625 5.09375 
Q 40.234375 -1.421875 26.90625 -1.421875 
Q 22.3125 -1.421875 17.546875 -0.640625 
Q 12.796875 0.140625 7.71875 1.703125 
L 7.71875 11.625 
Q 12.109375 9.234375 16.796875 8.0625 
Q 21.484375 6.890625 26.703125 6.890625 
Q 35.15625 6.890625 40.078125 11.328125 
Q 45.015625 15.765625 45.015625 23.390625 
Q 45.015625 31 40.078125 35.4375 
Q 35.15625 39.890625 26.703125 39.890625 
Q 22.75 39.890625 18.8125 39.015625 
Q 14.890625 38.140625 10.796875 36.28125 
z
" id="BitstreamVeraSans-Roman-35"/>
      </defs>
      <g transform="translate(63.880625 240.91125)scale(0.12 -0.12)">
       <use xlink:href="#BitstreamVeraSans-Roman-35"/>
       <use x="63.623046875" xlink:href="#BitstreamVeraSans-Roman-2e"/>
       <use x="95.41015625" xlink:href="#BitstreamVeraSans-Roman-30"/>
       <use x="159.033203125" xlink:href="#BitstreamVeraSans-Roman-30"/>
       <use x="222.65625" xlink:href="#BitstreamVeraSans-Roman-20"/>
       <use x="254.443359375" xlink:href="#BitstreamVeraSans-Roman-4d"/>
       <use x="340.72265625" xlink:href="#BitstreamVeraSans-Roman-42"/>
      </g>
     </g>
    </g>
    <g id="ytick_3">
     <g id="line2d_16">
      <g>
       <use style="stroke:#000000;stroke-width:0.5;" x="117.0" xlink:href="#ma299b8e25b" y="187.2"/>
      </g>
     </g>
     <g id="text_9">
      <!-- 10.00 MB -->
      <g transform="translate(56.245625 190.51125)scale(0.12 -0.12)">
       <use xlink:href="#BitstreamVeraSans-Roman-31"/>
       <use x="63.623046875" xlink:href="#BitstreamVeraSans-Roman-30"/>
       <use x="127.24609375" xlink:href="#BitstreamVeraSans-Roman-2e"/>
       <use x="159.033203125" xlink:href="#BitstreamVeraSans-Roman-30"/>
       <use x="222.65625" xlink:href="#BitstreamVeraSans-Roman-30"/>
       <use x="286.279296875" xlink:href="#BitstreamVeraSans-Roman-20"/>
       <use x="318.06640625" xlink:href="#BitstreamVeraSans-Roman-4d"/>
       <use x="404.345703125" xlink:href="#BitstreamVeraSans-Roman-42"/>
      </g>
     </g>
    </g>
    <g id="ytick_4">
     <g id="line2d_17">
      <g>
       <use style="stroke:#000000;stroke-width:0.5;" x="117.0" xlink:href="#ma299b8e25b" y="136.8"/>
      </g>
     </g>
     <g id="text_10">
      <!-- 15.00 MB -->
      <g transform="translate(56.245625 140.11125)scale(0.12 -0.12)">
       <use xlink:href="#BitstreamVeraSans-Roman-31"/>
       <use x="63.623046875" xlink:href="#BitstreamVeraSans-Roman-35"/>
       <use x="127.24609375" xlink:href="#BitstreamVeraSans-Roman-2e"/>
       <use x="159.033203125" xlink:href="#BitstreamVeraSans-Roman-30"/>
       <use x="222.65625" xlink:href="#BitstreamVeraSans-Roman-30"/>
       <use x="286.279296875" xlink:href="#BitstreamVeraSans-Roman-20"/>
       <use x="318.06640625" xlink:href="#BitstreamVeraSans-Roman-4d"/>
       <use x="404.345703125" xlink:href="#BitstreamVeraSans-Roman-42"/>
      </g>
     </g>
    </g>
    <g id="ytick_5">
     <g id="line2d_18">
      <g>
       <use style="stroke:#000000;stroke-width:0.5;" x="117.0" xlink:href="#ma299b8e25b" y="86.4"/>
      </g>
     </g>
     <g id="text_11">
      <!-- 20.00 MB -->
      <defs>
       <path d="M 19.1875 8.296875 
L 53.609375 8.296875 
L 53.609375 0 
L 7.328125 0 
L 7.328125 8.296875 
Q 12.9375 14.109375 22.625 23.890625 
Q 32.328125 33.6875 34.8125 36.53125 
Q 39.546875 41.84375 41.421875 45.53125 
Q 43.3125 49.21875 43.3125 52.78125 
Q 43.3125 58.59375 39.234375 62.25 
Q 35.15625 65.921875 28.609375 65.921875 
Q 23.96875 65.921875 18.8125 64.3125 
Q 13.671875 62.703125 7.8125 59.421875 
L 7.8125 69.390625 
Q 13.765625 71.78125 18.9375 73 
Q 24.125 74.21875 28.421875 74.21875 
Q 39.75 74.21875 46.484375 68.546875 
Q 53.21875 62.890625 53.21875 53.421875 
Q 53.21875 48.921875 51.53125 44.890625 
Q 49.859375 40.875 45.40625 35.40625 
Q 44.1875 33.984375 37.640625 27.21875 
Q 31.109375 20.453125 19.1875 8.296875 
" id="BitstreamVeraSans-Roman-32"/>
      </defs>
      <g transform="translate(56.245625 89.71125)scale(0.12 -0.12)">
       <use xlink:href="#BitstreamVeraSans-Roman-32"/>
       <use x="63.623046875" xlink:href="#BitstreamVeraSans-Roman-30"/>
       <use x="127.24609375" xlink:href="#BitstreamVeraSans-Roman-2e"/>
       <use x="159.033203125" xlink:href="#BitstreamVeraSans-Roman-30"/>
       <use x="222.65625" xlink:href="#BitstreamVeraSans-Roman-30"/>
       <use x="286.279296875" xlink:href="#BitstreamVeraSans-Roman-20"/>
       <use x="318.06640625" xlink:href="#BitstreamVeraSans-Roman-4d"/>
       <use x="404.345703125" xlink:href="#BitstreamVeraSans-Roman-42"/>
      </g>
     </g>
    </g>
    <g id="ytick_6">
     <g id="line2d_19">
      <g>
       <use style="stroke:#000000;stroke-width:0.5;" x="117.0" xlink:href="#ma299b8e25b" y="36.0"/>
      </g>
     </g>
     <g id="text_12">
      <!-- 25.00 MB -->
      <g transform="translate(56.245625 39.31125)scale(0.12 -0.12)">
       <use xlink:href="#BitstreamVeraSans-Roman-32"/>
       <use x="63.623046875" xlink:href="#BitstreamVeraSans-Roman-35"/>
       <use x="127.24609375" xlink:href="#BitstreamVeraSans-Roman-2e"/>
       <use x="159.033203125" xlink:href="#BitstreamVeraSans-Roman-30"/>
       <use x="222.65625" xlink:href="#BitstreamVeraSans-Roman-30"/>
       <use x="286.279296875" xlink:href="#BitstreamVeraSans-Roman-20"/>
       <use x="318.06640625" xlink:href="#BitstreamVeraSans-Roman-4d"/>
       <use x="404.345703125" xlink:href="#BitstreamVeraSans-Roman-42"/>
      </g>
     </g>
    </g>
    <g id="text_13">
     <!-- Mempool size (in MB) -->
     <defs>
      <path d="M 8.015625 75.875 
L 15.828125 75.875 
Q 23.140625 64.359375 26.78125 53.3125 
Q 30.421875 42.28125 30.421875 31.390625 
Q 30.421875 20.453125 26.78125 9.375 
Q 23.140625 -1.703125 15.828125 -13.1875 
L 8.015625 -13.1875 
Q 14.5 -2 17.703125 9.0625 
Q 20.90625 20.125 20.90625 31.390625 
Q 20.90625 42.671875 17.703125 53.65625 
Q 14.5 64.65625 8.015625 75.875 
" id="BitstreamVeraSans-Roman-29"/>
      <path d="M 31 75.875 
Q 24.46875 64.65625 21.28125 53.65625 
Q 18.109375 42.671875 18.109375 31.390625 
Q 18.109375 20.125 21.3125 9.0625 
Q 24.515625 -2 31 -13.1875 
L 23.1875 -13.1875 
Q 15.875 -1.703125 12.234375 9.375 
Q 8.59375 20.453125 8.59375 31.390625 
Q 8.59375 42.28125 12.203125 53.3125 
Q 15.828125 64.359375 23.1875 75.875 
z
" id="BitstreamVeraSans-Roman-28"/>
      <path d="M 5.515625 54.6875 
L 48.1875 54.6875 
L 48.1875 46.484375 
L 14.40625 7.171875 
L 48.1875 7.171875 
L 48.1875 0 
L 4.296875 0 
L 4.296875 8.203125 
L 38.09375 47.515625 
L 5.515625 47.515625 
z
" id="BitstreamVeraSans-Roman-7a"/>
      <path d="M 9.421875 54.6875 
L 18.40625 54.6875 
L 18.40625 0 
L 9.421875 0 
z
M 9.421875 75.984375 
L 18.40625 75.984375 
L 18.40625 64.59375 
L 9.421875 64.59375 
z
" id="BitstreamVeraSans-Roman-69"/>
      <path d="M 52 44.1875 
Q 55.375 50.25 60.0625 53.125 
Q 64.75 56 71.09375 56 
Q 79.640625 56 84.28125 50.015625 
Q 88.921875 44.046875 88.921875 33.015625 
L 88.921875 0 
L 79.890625 0 
L 79.890625 32.71875 
Q 79.890625 40.578125 77.09375 44.375 
Q 74.3125 48.1875 68.609375 48.1875 
Q 61.625 48.1875 57.5625 43.546875 
Q 53.515625 38.921875 53.515625 30.90625 
L 53.515625 0 
L 44.484375 0 
L 44.484375 32.71875 
Q 44.484375 40.625 41.703125 44.40625 
Q 38.921875 48.1875 33.109375 48.1875 
Q 26.21875 48.1875 22.15625 43.53125 
Q 18.109375 38.875 18.109375 30.90625 
L 18.109375 0 
L 9.078125 0 
L 9.078125 54.6875 
L 18.109375 54.6875 
L 18.109375 46.1875 
Q 21.1875 51.21875 25.484375 53.609375 
Q 29.78125 56 35.6875 56 
Q 41.65625 56 45.828125 52.96875 
Q 50 49.953125 52 44.1875 
" id="BitstreamVeraSans-Roman-6d"/>
      <path d="M 44.28125 53.078125 
L 44.28125 44.578125 
Q 40.484375 46.53125 36.375 47.5 
Q 32.28125 48.484375 27.875 48.484375 
Q 21.1875 48.484375 17.84375 46.4375 
Q 14.5 44.390625 14.5 40.28125 
Q 14.5 37.15625 16.890625 35.375 
Q 19.28125 33.59375 26.515625 31.984375 
L 29.59375 31.296875 
Q 39.15625 29.25 43.1875 25.515625 
Q 47.21875 21.78125 47.21875 15.09375 
Q 47.21875 7.46875 41.1875 3.015625 
Q 35.15625 -1.421875 24.609375 -1.421875 
Q 20.21875 -1.421875 15.453125 -0.5625 
Q 10.6875 0.296875 5.421875 2 
L 5.421875 11.28125 
Q 10.40625 8.6875 15.234375 7.390625 
Q 20.0625 6.109375 24.8125 6.109375 
Q 31.15625 6.109375 34.5625 8.28125 
Q 37.984375 10.453125 37.984375 14.40625 
Q 37.984375 18.0625 35.515625 20.015625 
Q 33.0625 21.96875 24.703125 23.78125 
L 21.578125 24.515625 
Q 13.234375 26.265625 9.515625 29.90625 
Q 5.8125 33.546875 5.8125 39.890625 
Q 5.8125 47.609375 11.28125 51.796875 
Q 16.75 56 26.8125 56 
Q 31.78125 56 36.171875 55.265625 
Q 40.578125 54.546875 44.28125 53.078125 
" id="BitstreamVeraSans-Roman-73"/>
     </defs>
     <g transform="translate(48.75 226.3303125)rotate(-90.0)scale(0.12 -0.12)">
      <use xlink:href="#BitstreamVeraSans-Roman-4d"/>
      <use x="86.279296875" xlink:href="#BitstreamVeraSans-Roman-65"/>
      <use x="147.802734375" xlink:href="#BitstreamVeraSans-Roman-6d"/>
      <use x="245.21484375" xlink:href="#BitstreamVeraSans-Roman-70"/>
      <use x="308.69140625" xlink:href="#BitstreamVeraSans-Roman-6f"/>
      <use x="369.873046875" xlink:href="#BitstreamVeraSans-Roman-6f"/>
      <use x="431.0546875" xlink:href="#BitstreamVeraSans-Roman-6c"/>
      <use x="458.837890625" xlink:href="#BitstreamVeraSans-Roman-20"/>
      <use x="490.625" xlink:href="#BitstreamVeraSans-Roman-73"/>
      <use x="542.724609375" xlink:href="#BitstreamVeraSans-Roman-69"/>
      <use x="570.5078125" xlink:href="#BitstreamVeraSans-Roman-7a"/>
      <use x="622.998046875" xlink:href="#BitstreamVeraSans-Roman-65"/>
      <use x="684.521484375" xlink:href="#BitstreamVeraSans-Roman-20"/>
      <use x="716.30859375" xlink:href="#BitstreamVeraSans-Roman-28"/>
      <use x="755.322265625" xlink:href="#BitstreamVeraSans-Roman-69"/>
      <use x="783.10546875" xlink:href="#BitstreamVeraSans-Roman-6e"/>
      <use x="846.484375" xlink:href="#BitstreamVeraSans-Roman-20"/>
      <use x="878.271484375" xlink:href="#BitstreamVeraSans-Roman-4d"/>
      <use x="964.55078125" xlink:href="#BitstreamVeraSans-Roman-42"/>
      <use x="1033.15429688" xlink:href="#BitstreamVeraSans-Roman-29"/>
     </g>
    </g>
   </g>
  </g>
  <g id="axes_2">
   <g id="line2d_20">
    <path clip-path="url(#p7f15c55fa9)" d="M 117 207.95472 
L 121.052514 209.84472 
L 125.105028 213.98256 
L 129.157542 217.95912 
L 133.210056 213.408 
L 137.26257 201.91932 
L 141.315084 199.42452 
L 145.367598 199.63872 
L 149.420112 201.2616 
L 153.472626 196.93476 
L 157.52514 195.62436 
L 161.577654 180.22212 
L 165.630168 179.77608 
L 169.682682 176.25816 
L 173.735196 168.37308 
L 177.787709 176.27328 
L 181.840223 188.27856 
L 185.892737 193.29336 
L 189.945251 183.29652 
L 193.997765 174.30012 
L 198.050279 167.78592 
L 202.102793 169.45416 
L 206.155307 143.10252 
L 210.207821 164.47716 
L 214.260335 181.44936 
L 218.312849 171.34416 
L 222.365363 171.63396 
L 226.417877 167.14836 
L 230.470391 167.58684 
L 234.522905 173.55924 
L 238.575419 183.31668 
L 242.627933 194.71464 
L 250.732961 176.56812 
L 254.785475 174.5748 
L 258.837989 177.63408 
L 262.890503 178.03476 
L 266.943017 185.59728 
L 270.995531 186.78168 
L 275.048045 177.05952 
L 283.153073 130.95108 
L 287.205587 145.6956 
L 291.258101 148.03416 
L 295.310615 157.5648 
L 299.363128 165.2508 
L 303.415642 141.14448 
L 307.468156 147.34368 
L 311.52067 131.61636 
L 315.573184 143.38476 
L 319.625698 143.54604 
L 323.678212 161.19612 
L 327.730726 169.97328 
L 331.78324 159.0264 
L 335.835754 161.47332 
L 339.888268 156.06036 
L 343.940782 159.63372 
L 347.993296 160.4502 
L 352.04581 174.95028 
L 356.098324 190.12068 
L 360.150838 180.13896 
L 364.203352 172.38492 
L 368.255866 170.33616 
L 372.30838 171.43992 
L 376.360894 173.18376 
L 380.413408 193.41432 
L 384.465922 210.95604 
L 388.518436 188.81784 
L 392.57095 192.6432 
L 396.623464 182.56572 
L 400.675978 175.15944 
L 404.728492 174.63276 
L 408.781006 181.278 
L 412.83352 183.70476 
L 416.886034 179.7912 
L 420.938547 167.14836 
L 424.991061 158.09148 
L 429.043575 150.02244 
L 433.096089 145.52928 
L 437.148603 150.05772 
L 441.201117 164.6712 
L 445.253631 145.64016 
L 449.306145 141.72912 
L 453.358659 125.93376 
L 457.411173 140.76144 
L 461.463687 138.26664 
L 465.516201 138.75804 
L 469.568715 128.55708 
L 473.621229 138.22884 
L 477.673743 143.6418 
L 481.726257 149.94936 
L 485.778771 152.05356 
L 489.831285 158.23008 
L 493.883799 178.22376 
L 497.936313 176.71176 
L 501.988827 155.32704 
L 506.041341 146.78928 
L 510.093855 141.0714 
L 514.146369 140.05332 
L 518.198883 147.0186 
L 522.251397 156.38292 
L 526.303911 164.14956 
L 534.408939 128.41092 
L 538.461453 136.80756 
L 542.513966 139.34016 
L 546.56648 129.88512 
L 550.618994 147.29328 
L 554.671508 160.75764 
L 558.724022 148.6566 
L 562.776536 142.86312 
L 566.82905 147.60324 
L 570.881564 146.1366 
L 574.934078 149.49072 
L 578.986592 158.16456 
L 583.039106 171.48024 
L 587.09162 149.4504 
L 591.144134 148.14756 
L 595.196648 148.7196 
L 599.249162 148.85316 
L 603.301676 156.54924 
L 607.35419 159.07428 
L 611.406704 177.52572 
L 615.459218 153.91584 
L 619.511732 152.58276 
L 623.564246 149.20848 
L 627.61676 156.67272 
L 631.669274 148.54068 
L 635.721788 167.52636 
L 639.774302 172.26648 
L 643.826816 161.09784 
L 647.87933 143.7804 
L 651.931844 154.38456 
L 655.984358 156.26448 
L 660.036872 143.24868 
L 664.089385 157.72356 
L 668.141899 162.71316 
L 672.194413 138.87144 
L 676.246927 143.226 
L 680.299441 147.2202 
L 684.351955 147.05388 
L 688.404469 144.8892 
L 692.456983 150.56676 
L 696.509497 168.44112 
L 700.562011 153.53784 
L 704.614525 148.18032 
L 708.667039 144.5994 
L 712.719553 138.0348 
L 716.772067 142.10208 
L 720.824581 149.4756 
L 724.877095 151.64028 
L 728.929609 139.28472 
L 732.982123 140.39352 
L 737.034637 140.63796 
L 741.087151 140.08356 
L 745.139665 141.75936 
L 749.192179 146.50452 
L 753.244693 151.90992 
L 757.297207 128.72088 
L 761.349721 126.58896 
L 765.402235 140.40612 
L 769.454749 137.997 
L 777.559777 141.7266 
L 781.612291 146.04336 
L 785.664804 127.57932 
L 789.717318 131.86584 
L 793.769832 121.41036 
L 797.822346 103.55112 
L 801.87486 134.6958 
L 805.927374 135.82728 
L 809.979888 125.4348 
L 814.032402 107.2152 
L 818.084916 80.11008 
L 822.13743 38.06388 
L 826.189944 70.97508 
L 830.242458 113.9814 
L 834.294972 126.41256 
L 838.347486 142.41456 
L 842.4 130.42944 
L 842.4 130.42944 
" style="fill:none;stroke:#0000ff;stroke-linecap:square;"/>
   </g>
   <g id="line2d_21">
    <path clip-path="url(#p7f15c55fa9)" d="M 117 228.96144 
L 121.052514 228.49272 
L 125.105028 236.35764 
L 129.157542 240.80544 
L 133.210056 233.5554 
L 137.26257 223.36452 
L 141.315084 219.92976 
L 145.367598 223.05204 
L 149.420112 222.4926 
L 153.472626 217.2762 
L 157.52514 217.89864 
L 161.577654 199.85292 
L 165.630168 203.48676 
L 169.682682 198.28044 
L 173.735196 194.38704 
L 177.787709 205.09704 
L 181.840223 214.01784 
L 185.892737 224.27172 
L 189.945251 209.47428 
L 193.997765 201.46824 
L 198.050279 192.7692 
L 202.102793 194.07708 
L 206.155307 168.42852 
L 210.207821 196.12836 
L 214.260335 219.98016 
L 218.312849 194.56848 
L 222.365363 200.8584 
L 226.417877 194.50296 
L 230.470391 194.21568 
L 234.522905 200.745 
L 238.575419 213.52392 
L 242.627933 231.741 
L 250.732961 201.33216 
L 254.785475 202.0932 
L 258.837989 207.66492 
L 262.890503 208.22688 
L 266.943017 215.36352 
L 270.995531 215.93052 
L 279.100559 173.70036 
L 283.153073 155.35476 
L 287.205587 168.59736 
L 291.258101 170.00856 
L 295.310615 189.70488 
L 299.363128 204.07644 
L 303.415642 177.95664 
L 307.468156 172.05984 
L 311.52067 159.16248 
L 315.573184 166.11516 
L 319.625698 167.72796 
L 323.678212 193.37904 
L 327.730726 207.87156 
L 331.78324 191.26224 
L 335.835754 194.89356 
L 339.888268 192.8826 
L 343.940782 191.44116 
L 347.993296 193.30848 
L 352.04581 215.3862 
L 356.098324 225.11088 
L 360.150838 213.67512 
L 364.203352 204.42672 
L 368.255866 204.6258 
L 372.30838 202.40064 
L 376.360894 205.57584 
L 380.413408 225.78372 
L 384.465922 241.79328 
L 388.518436 217.30644 
L 392.57095 217.125 
L 396.623464 209.68848 
L 400.675978 205.26336 
L 404.728492 200.35188 
L 408.781006 212.38488 
L 412.83352 214.51176 
L 416.886034 206.75016 
L 420.938547 195.37236 
L 424.991061 186.83712 
L 429.043575 186.47676 
L 433.096089 180.0054 
L 437.148603 190.5642 
L 441.201117 203.96052 
L 445.253631 169.89264 
L 449.306145 167.11308 
L 453.358659 155.58912 
L 457.411173 166.04712 
L 461.463687 164.06388 
L 465.516201 173.5038 
L 469.568715 165.82032 
L 473.621229 159.9462 
L 477.673743 165.969 
L 481.726257 178.73532 
L 485.778771 183.22848 
L 489.831285 191.89224 
L 493.883799 220.82184 
L 497.936313 215.17704 
L 501.988827 178.65468 
L 506.041341 176.3262 
L 510.093855 170.59068 
L 514.146369 165.7926 
L 518.198883 179.21664 
L 522.251397 196.1334 
L 526.303911 206.78544 
L 530.356425 178.81596 
L 534.408939 153.16236 
L 538.461453 162.73836 
L 542.513966 163.22472 
L 546.56648 154.61892 
L 550.618994 179.50896 
L 554.671508 207.01224 
L 558.724022 174.02796 
L 562.776536 169.71876 
L 566.82905 178.08012 
L 570.881564 176.4774 
L 574.934078 179.70552 
L 578.986592 197.21196 
L 583.039106 216.88812 
L 587.09162 172.31688 
L 595.196648 175.75668 
L 599.249162 177.939 
L 603.301676 189.77796 
L 607.35419 191.24964 
L 611.406704 225.14364 
L 615.459218 179.36028 
L 619.511732 181.9584 
L 623.564246 178.51104 
L 627.61676 187.20756 
L 631.669274 174.11364 
L 635.721788 211.21812 
L 639.774302 215.14932 
L 643.826816 199.14984 
L 647.87933 169.73892 
L 651.931844 187.2126 
L 655.984358 187.77204 
L 660.036872 176.40936 
L 664.089385 197.24976 
L 668.141899 204.04872 
L 672.194413 164.03112 
L 676.246927 173.6424 
L 680.299441 176.73192 
L 684.351955 174.8646 
L 688.404469 180.1314 
L 692.456983 187.09416 
L 696.509497 210.4974 
L 700.562011 180.3204 
L 704.614525 176.01876 
L 708.667039 168.84684 
L 712.719553 158.18724 
L 716.772067 158.74164 
L 720.824581 180.45648 
L 724.877095 183.41748 
L 728.929609 156.582 
L 732.982123 161.4834 
L 737.034637 158.25024 
L 741.087151 154.71468 
L 745.139665 157.99824 
L 749.192179 167.52384 
L 753.244693 186.3432 
L 757.297207 156.34512 
L 761.349721 144.18108 
L 765.402235 163.26756 
L 769.454749 154.07208 
L 773.507263 154.90368 
L 777.559777 160.00668 
L 781.612291 173.6046 
L 785.664804 149.99472 
L 789.717318 149.45544 
L 793.769832 139.27464 
L 797.822346 128.42856 
L 801.87486 149.35968 
L 805.927374 154.55844 
L 809.979888 153.27576 
L 814.032402 130.52772 
L 818.084916 102.27096 
L 822.13743 45.45756 
L 826.189944 117.29268 
L 830.242458 144.09036 
L 834.294972 151.101 
L 838.347486 176.49504 
L 842.4 157.66812 
L 842.4 157.66812 
" style="fill:none;stroke:#ffa500;stroke-linecap:square;"/>
   </g>
   <g id="line2d_22">
    <path clip-path="url(#p7f15c55fa9)" d="M 117 241.96716 
L 121.052514 241.52616 
L 125.105028 249.57504 
L 129.157542 253.08288 
L 133.210056 245.65392 
L 137.26257 235.61424 
L 141.315084 232.21224 
L 145.367598 236.97504 
L 149.420112 234.9288 
L 153.472626 228.62124 
L 157.52514 233.36388 
L 161.577654 212.54868 
L 165.630168 218.5236 
L 169.682682 212.29668 
L 173.735196 209.64816 
L 177.787709 219.52908 
L 181.840223 227.41668 
L 185.892737 241.84116 
L 189.945251 225.1008 
L 193.997765 217.85328 
L 198.050279 209.39868 
L 202.102793 209.59776 
L 206.155307 184.04244 
L 210.207821 215.67852 
L 214.260335 240.5736 
L 218.312849 210.06648 
L 222.365363 219.54168 
L 226.417877 212.85612 
L 230.470391 214.7436 
L 234.522905 219.81636 
L 238.575419 230.4558 
L 242.627933 249.2424 
L 246.680447 232.62048 
L 250.732961 217.39968 
L 254.785475 219.71052 
L 258.837989 225.93996 
L 262.890503 226.4364 
L 266.943017 233.40672 
L 270.995531 230.93208 
L 275.048045 207.44064 
L 279.100559 185.31756 
L 283.153073 169.37856 
L 287.205587 181.27548 
L 291.258101 184.60188 
L 295.310615 211.84056 
L 299.363128 228.72456 
L 303.415642 196.62732 
L 307.468156 187.83756 
L 311.52067 175.30308 
L 315.573184 180.94536 
L 319.625698 183.26376 
L 323.678212 214.77888 
L 327.730726 231.10344 
L 331.78324 211.53312 
L 335.835754 213.83136 
L 339.888268 211.09968 
L 343.940782 209.07612 
L 347.993296 210.87792 
L 352.04581 237.46644 
L 356.098324 245.69172 
L 360.150838 232.27776 
L 364.203352 220.88484 
L 368.255866 221.47452 
L 372.30838 219.015 
L 376.360894 220.14144 
L 380.413408 245.5884 
L 384.465922 260.0154 
L 388.518436 232.86996 
L 392.57095 230.1534 
L 396.623464 224.52372 
L 400.675978 220.68828 
L 404.728492 215.50968 
L 408.781006 231.59232 
L 412.83352 232.47936 
L 416.886034 222.82272 
L 420.938547 212.12532 
L 424.991061 205.23564 
L 429.043575 205.67412 
L 433.096089 199.9008 
L 441.201117 227.66868 
L 445.253631 187.515 
L 449.306145 185.2722 
L 453.358659 173.8944 
L 457.411173 183.5082 
L 461.463687 180.63288 
L 465.516201 194.58108 
L 469.568715 191.13372 
L 473.621229 177.30648 
L 477.673743 183.1554 
L 481.726257 200.11752 
L 485.778771 205.07184 
L 489.831285 214.76124 
L 493.883799 244.1394 
L 497.936313 234.40968 
L 501.988827 194.05692 
L 510.093855 190.83636 
L 514.146369 183.97188 
L 518.198883 200.6064 
L 522.251397 222.58836 
L 526.303911 233.79984 
L 530.356425 201.18852 
L 534.408939 170.78976 
L 538.461453 180.29016 
L 542.513966 181.09908 
L 546.56648 173.17368 
L 550.618994 208.15128 
L 554.671508 236.3022 
L 558.724022 193.86036 
L 562.776536 189.50832 
L 566.82905 201.02724 
L 570.881564 195.77808 
L 574.934078 201.07008 
L 578.986592 223.17804 
L 583.039106 240.63156 
L 587.09162 190.75824 
L 591.144134 192.9456 
L 595.196648 196.1082 
L 599.249162 197.847 
L 603.301676 210.54024 
L 607.35419 212.36724 
L 611.406704 248.14368 
L 615.459218 197.08596 
L 619.511732 202.92732 
L 623.564246 198.0612 
L 627.61676 206.42508 
L 631.669274 194.58864 
L 635.721788 236.37024 
L 639.774302 237.74616 
L 643.826816 220.81176 
L 647.87933 189.38988 
L 651.931844 211.9464 
L 655.984358 208.3806 
L 660.036872 196.839 
L 664.089385 221.01084 
L 668.141899 228.98412 
L 672.194413 182.4498 
L 676.246927 194.84568 
L 680.299441 199.1826 
L 684.351955 196.0074 
L 688.404469 201.59928 
L 692.456983 213.33744 
L 696.509497 235.64196 
L 700.562011 201.10032 
L 704.614525 196.52652 
L 708.667039 186.8724 
L 712.719553 174.6882 
L 716.772067 173.50632 
L 720.824581 204.95088 
L 724.877095 207.21384 
L 728.929609 171.7776 
L 732.982123 178.82856 
L 737.034637 173.66256 
L 741.087151 167.40792 
L 745.139665 173.35512 
L 749.192179 190.20636 
L 753.244693 214.63524 
L 757.297207 172.37232 
L 761.349721 154.63908 
L 765.402235 181.5804 
L 769.454749 167.75316 
L 773.507263 168.37056 
L 777.559777 177.70968 
L 781.612291 200.9592 
L 785.664804 164.53764 
L 789.717318 164.39652 
L 793.769832 155.4858 
L 797.822346 138.9168 
L 801.87486 162.09072 
L 805.927374 175.27536 
L 809.979888 182.46744 
L 814.032402 140.96304 
L 818.084916 112.986 
L 822.13743 54.41112 
L 826.189944 133.35012 
L 830.242458 161.6346 
L 834.294972 173.77596 
L 838.347486 212.56632 
L 842.4 175.71636 
L 842.4 175.71636 
" style="fill:none;stroke:#008000;stroke-linecap:square;"/>
   </g>
   <g id="line2d_23">
    <path clip-path="url(#p7f15c55fa9)" d="M 117 260.60256 
L 121.052514 260.26488 
L 125.105028 268.60356 
L 129.157542 270.79596 
L 133.210056 263.91132 
L 137.26257 254.93508 
L 141.315084 252.65196 
L 145.367598 258.3774 
L 149.420112 251.75988 
L 153.472626 246.21588 
L 157.52514 256.45464 
L 161.577654 231.91992 
L 165.630168 242.59212 
L 169.682682 234.88848 
L 173.735196 232.54488 
L 177.787709 243.19692 
L 181.840223 248.86188 
L 185.892737 263.85588 
L 189.945251 246.65688 
L 193.997765 243.66312 
L 198.050279 234.59868 
L 202.102793 233.8074 
L 206.155307 209.37348 
L 210.207821 244.84752 
L 214.260335 264.01212 
L 218.312849 233.8074 
L 222.365363 245.93364 
L 226.417877 239.35896 
L 230.470391 246.35952 
L 234.522905 248.26464 
L 238.575419 255.44664 
L 242.627933 267.28308 
L 246.680447 253.95732 
L 250.732961 243.28764 
L 254.785475 245.5128 
L 258.837989 253.24416 
L 262.890503 251.61876 
L 266.943017 257.90868 
L 270.995531 250.58052 
L 275.048045 226.62036 
L 279.100559 206.10252 
L 283.153073 191.72592 
L 287.205587 206.43264 
L 291.258101 213.04764 
L 295.310615 241.08516 
L 299.363128 260.40096 
L 303.415642 222.90336 
L 307.468156 214.91244 
L 311.52067 199.3464 
L 315.573184 210.70152 
L 319.625698 211.26348 
L 323.678212 246.22092 
L 327.730726 256.9032 
L 331.78324 239.15232 
L 335.835754 241.68996 
L 339.888268 241.33212 
L 343.940782 235.81332 
L 347.993296 243.46908 
L 352.04581 264.90672 
L 356.098324 265.01004 
L 360.150838 256.0716 
L 364.203352 247.70772 
L 368.255866 246.40488 
L 372.30838 246.19068 
L 376.360894 248.08068 
L 380.413408 268.04664 
L 384.465922 272.98584 
L 388.518436 253.00224 
L 392.57095 251.84304 
L 396.623464 248.17896 
L 400.675978 245.38428 
L 404.728492 242.05284 
L 408.781006 259.79364 
L 412.83352 257.42736 
L 420.938547 236.75328 
L 424.991061 232.48188 
L 429.043575 235.13544 
L 433.096089 230.43564 
L 437.148603 245.42964 
L 441.201117 258.01704 
L 445.253631 218.1582 
L 449.306145 215.94564 
L 453.358659 204.19488 
L 457.411173 217.3392 
L 461.463687 211.62384 
L 465.516201 228.72204 
L 469.568715 233.57052 
L 473.621229 210.75444 
L 477.673743 215.928 
L 481.726257 233.97876 
L 485.778771 238.95576 
L 489.831285 247.51116 
L 493.883799 270.5994 
L 497.936313 257.8482 
L 501.988827 220.92516 
L 506.041341 217.46016 
L 510.093855 225.71064 
L 514.146369 218.88648 
L 518.198883 234.65916 
L 522.251397 256.1724 
L 526.303911 264.14064 
L 530.356425 228.2004 
L 534.408939 200.91888 
L 538.461453 212.56884 
L 542.513966 212.58144 
L 546.56648 210.47976 
L 550.618994 250.63848 
L 554.671508 267.90804 
L 558.724022 229.33692 
L 562.776536 224.55396 
L 566.82905 238.27788 
L 570.881564 227.93328 
L 574.934078 237.38328 
L 578.986592 260.31024 
L 583.039106 266.74632 
L 587.09162 222.88572 
L 591.144134 224.13816 
L 595.196648 230.13576 
L 599.249162 230.93208 
L 603.301676 243.4968 
L 607.35419 244.23516 
L 611.406704 269.16552 
L 615.459218 227.27556 
L 619.511732 235.30428 
L 623.564246 231.1488 
L 627.61676 233.87292 
L 631.669274 227.3814 
L 635.721788 265.74084 
L 639.774302 265.32504 
L 643.826816 250.263 
L 647.87933 222.24312 
L 651.931844 247.70016 
L 655.984358 239.40684 
L 660.036872 226.8648 
L 664.089385 248.1462 
L 668.141899 261.25776 
L 672.194413 215.2854 
L 676.246927 233.08416 
L 680.299441 240.07212 
L 684.351955 234.41472 
L 688.404469 236.11572 
L 692.456983 253.79856 
L 696.509497 265.0428 
L 700.562011 235.14552 
L 704.614525 228.26088 
L 708.667039 219.89952 
L 712.719553 208.42092 
L 716.772067 205.77996 
L 720.824581 245.69424 
L 724.877095 241.12296 
L 728.929609 204.49224 
L 732.982123 211.80276 
L 737.034637 202.41576 
L 741.087151 196.97256 
L 745.139665 205.85556 
L 749.192179 232.21476 
L 753.244693 255.97836 
L 757.297207 199.10196 
L 761.349721 177.36948 
L 765.402235 219.46356 
L 769.454749 196.76088 
L 773.507263 199.55808 
L 777.559777 212.43276 
L 781.612291 246.17808 
L 785.664804 190.28196 
L 789.717318 196.07544 
L 793.769832 189.84348 
L 797.822346 156.44592 
L 801.87486 201.23136 
L 805.927374 215.52984 
L 809.979888 221.16708 
L 814.032402 169.51968 
L 818.084916 140.84208 
L 822.13743 80.56872 
L 826.189944 149.17572 
L 830.242458 206.66196 
L 834.294972 219.74076 
L 838.347486 262.92096 
L 842.4 207.84384 
L 842.4 207.84384 
" style="fill:none;stroke:#ff0000;stroke-linecap:square;"/>
   </g>
   <g id="patch_7">
    <path d="M 117 36 
L 842.4 36 
" style="fill:none;stroke:#000000;stroke-linecap:square;stroke-linejoin:miter;"/>
   </g>
   <g id="patch_8">
    <path d="M 842.4 288 
L 842.4 36 
" style="fill:none;stroke:#000000;stroke-linecap:square;stroke-linejoin:miter;"/>
   </g>
   <g id="patch_9">
    <path d="M 117 288 
L 842.4 288 
" style="fill:none;stroke:#000000;stroke-linecap:square;stroke-linejoin:miter;"/>
   </g>
   <g id="patch_10">
    <path d="M 117 288 
L 117 36 
" style="fill:none;stroke:#000000;stroke-linecap:square;stroke-linejoin:miter;"/>
   </g>
   <g id="matplotlib.axis_3">
    <g id="ytick_7">
     <g id="line2d_24">
      <path clip-path="url(#p7f15c55fa9)" d="M 117 288 
L 842.4 288 
" style="fill:none;stroke:#000000;stroke-dasharray:1.000000,3.000000;stroke-dashoffset:0.0;stroke-width:0.5;"/>
     </g>
     <g id="line2d_25">
      <defs>
       <path d="M 0 0 
L -4 0 
" id="me91705b72f" style="stroke:#000000;stroke-width:0.5;"/>
      </defs>
      <g>
       <use style="stroke:#000000;stroke-width:0.5;" x="842.4" xlink:href="#me91705b72f" y="288.0"/>
      </g>
     </g>
     <g id="text_14">
      <!-- 0,000 -->
      <defs>
       <path d="M 11.71875 12.40625 
L 22.015625 12.40625 
L 22.015625 4 
L 14.015625 -11.625 
L 7.71875 -11.625 
L 11.71875 4 
z
" id="BitstreamVeraSans-Roman-2c"/>
      </defs>
      <g transform="translate(846.4 291.31125)scale(0.12 -0.12)">
       <use xlink:href="#BitstreamVeraSans-Roman-30"/>
       <use x="63.623046875" xlink:href="#BitstreamVeraSans-Roman-2c"/>
       <use x="95.41015625" xlink:href="#BitstreamVeraSans-Roman-30"/>
       <use x="159.033203125" xlink:href="#BitstreamVeraSans-Roman-30"/>
       <use x="222.65625" xlink:href="#BitstreamVeraSans-Roman-30"/>
      </g>
     </g>
    </g>
    <g id="ytick_8">
     <g id="line2d_26">
      <path clip-path="url(#p7f15c55fa9)" d="M 117 237.6 
L 842.4 237.6 
" style="fill:none;stroke:#000000;stroke-dasharray:1.000000,3.000000;stroke-dashoffset:0.0;stroke-width:0.5;"/>
     </g>
     <g id="line2d_27">
      <g>
       <use style="stroke:#000000;stroke-width:0.5;" x="842.4" xlink:href="#me91705b72f" y="237.6"/>
      </g>
     </g>
     <g id="text_15">
      <!-- 20,000 -->
      <g transform="translate(846.4 240.91125)scale(0.12 -0.12)">
       <use xlink:href="#BitstreamVeraSans-Roman-32"/>
       <use x="63.623046875" xlink:href="#BitstreamVeraSans-Roman-30"/>
       <use x="127.24609375" xlink:href="#BitstreamVeraSans-Roman-2c"/>
       <use x="159.033203125" xlink:href="#BitstreamVeraSans-Roman-30"/>
       <use x="222.65625" xlink:href="#BitstreamVeraSans-Roman-30"/>
       <use x="286.279296875" xlink:href="#BitstreamVeraSans-Roman-30"/>
      </g>
     </g>
    </g>
    <g id="ytick_9">
     <g id="line2d_28">
      <path clip-path="url(#p7f15c55fa9)" d="M 117 187.2 
L 842.4 187.2 
" style="fill:none;stroke:#000000;stroke-dasharray:1.000000,3.000000;stroke-dashoffset:0.0;stroke-width:0.5;"/>
     </g>
     <g id="line2d_29">
      <g>
       <use style="stroke:#000000;stroke-width:0.5;" x="842.4" xlink:href="#me91705b72f" y="187.2"/>
      </g>
     </g>
     <g id="text_16">
      <!-- 40,000 -->
      <defs>
       <path d="M 37.796875 64.3125 
L 12.890625 25.390625 
L 37.796875 25.390625 
z
M 35.203125 72.90625 
L 47.609375 72.90625 
L 47.609375 25.390625 
L 58.015625 25.390625 
L 58.015625 17.1875 
L 47.609375 17.1875 
L 47.609375 0 
L 37.796875 0 
L 37.796875 17.1875 
L 4.890625 17.1875 
L 4.890625 26.703125 
z
" id="BitstreamVeraSans-Roman-34"/>
      </defs>
      <g transform="translate(846.4 190.51125)scale(0.12 -0.12)">
       <use xlink:href="#BitstreamVeraSans-Roman-34"/>
       <use x="63.623046875" xlink:href="#BitstreamVeraSans-Roman-30"/>
       <use x="127.24609375" xlink:href="#BitstreamVeraSans-Roman-2c"/>
       <use x="159.033203125" xlink:href="#BitstreamVeraSans-Roman-30"/>
       <use x="222.65625" xlink:href="#BitstreamVeraSans-Roman-30"/>
       <use x="286.279296875" xlink:href="#BitstreamVeraSans-Roman-30"/>
      </g>
     </g>
    </g>
    <g id="ytick_10">
     <g id="line2d_30">
      <path clip-path="url(#p7f15c55fa9)" d="M 117 136.8 
L 842.4 136.8 
" style="fill:none;stroke:#000000;stroke-dasharray:1.000000,3.000000;stroke-dashoffset:0.0;stroke-width:0.5;"/>
     </g>
     <g id="line2d_31">
      <g>
       <use style="stroke:#000000;stroke-width:0.5;" x="842.4" xlink:href="#me91705b72f" y="136.8"/>
      </g>
     </g>
     <g id="text_17">
      <!-- 60,000 -->
      <g transform="translate(846.4 140.11125)scale(0.12 -0.12)">
       <use xlink:href="#BitstreamVeraSans-Roman-36"/>
       <use x="63.623046875" xlink:href="#BitstreamVeraSans-Roman-30"/>
       <use x="127.24609375" xlink:href="#BitstreamVeraSans-Roman-2c"/>
       <use x="159.033203125" xlink:href="#BitstreamVeraSans-Roman-30"/>
       <use x="222.65625" xlink:href="#BitstreamVeraSans-Roman-30"/>
       <use x="286.279296875" xlink:href="#BitstreamVeraSans-Roman-30"/>
      </g>
     </g>
    </g>
    <g id="ytick_11">
     <g id="line2d_32">
      <path clip-path="url(#p7f15c55fa9)" d="M 117 86.4 
L 842.4 86.4 
" style="fill:none;stroke:#000000;stroke-dasharray:1.000000,3.000000;stroke-dashoffset:0.0;stroke-width:0.5;"/>
     </g>
     <g id="line2d_33">
      <g>
       <use style="stroke:#000000;stroke-width:0.5;" x="842.4" xlink:href="#me91705b72f" y="86.4"/>
      </g>
     </g>
     <g id="text_18">
      <!-- 80,000 -->
      <defs>
       <path d="M 31.78125 34.625 
Q 24.75 34.625 20.71875 30.859375 
Q 16.703125 27.09375 16.703125 20.515625 
Q 16.703125 13.921875 20.71875 10.15625 
Q 24.75 6.390625 31.78125 6.390625 
Q 38.8125 6.390625 42.859375 10.171875 
Q 46.921875 13.96875 46.921875 20.515625 
Q 46.921875 27.09375 42.890625 30.859375 
Q 38.875 34.625 31.78125 34.625 
M 21.921875 38.8125 
Q 15.578125 40.375 12.03125 44.71875 
Q 8.5 49.078125 8.5 55.328125 
Q 8.5 64.0625 14.71875 69.140625 
Q 20.953125 74.21875 31.78125 74.21875 
Q 42.671875 74.21875 48.875 69.140625 
Q 55.078125 64.0625 55.078125 55.328125 
Q 55.078125 49.078125 51.53125 44.71875 
Q 48 40.375 41.703125 38.8125 
Q 48.828125 37.15625 52.796875 32.3125 
Q 56.78125 27.484375 56.78125 20.515625 
Q 56.78125 9.90625 50.3125 4.234375 
Q 43.84375 -1.421875 31.78125 -1.421875 
Q 19.734375 -1.421875 13.25 4.234375 
Q 6.78125 9.90625 6.78125 20.515625 
Q 6.78125 27.484375 10.78125 32.3125 
Q 14.796875 37.15625 21.921875 38.8125 
M 18.3125 54.390625 
Q 18.3125 48.734375 21.84375 45.5625 
Q 25.390625 42.390625 31.78125 42.390625 
Q 38.140625 42.390625 41.71875 45.5625 
Q 45.3125 48.734375 45.3125 54.390625 
Q 45.3125 60.0625 41.71875 63.234375 
Q 38.140625 66.40625 31.78125 66.40625 
Q 25.390625 66.40625 21.84375 63.234375 
Q 18.3125 60.0625 18.3125 54.390625 
" id="BitstreamVeraSans-Roman-38"/>
      </defs>
      <g transform="translate(846.4 89.71125)scale(0.12 -0.12)">
       <use xlink:href="#BitstreamVeraSans-Roman-38"/>
       <use x="63.623046875" xlink:href="#BitstreamVeraSans-Roman-30"/>
       <use x="127.24609375" xlink:href="#BitstreamVeraSans-Roman-2c"/>
       <use x="159.033203125" xlink:href="#BitstreamVeraSans-Roman-30"/>
       <use x="222.65625" xlink:href="#BitstreamVeraSans-Roman-30"/>
       <use x="286.279296875" xlink:href="#BitstreamVeraSans-Roman-30"/>
      </g>
     </g>
    </g>
    <g id="ytick_12">
     <g id="line2d_34">
      <path clip-path="url(#p7f15c55fa9)" d="M 117 36 
L 842.4 36 
" style="fill:none;stroke:#000000;stroke-dasharray:1.000000,3.000000;stroke-dashoffset:0.0;stroke-width:0.5;"/>
     </g>
     <g id="line2d_35">
      <g>
       <use style="stroke:#000000;stroke-width:0.5;" x="842.4" xlink:href="#me91705b72f" y="36.0"/>
      </g>
     </g>
     <g id="text_19">
      <!-- 100,000 -->
      <g transform="translate(846.4 39.31125)scale(0.12 -0.12)">
       <use xlink:href="#BitstreamVeraSans-Roman-31"/>
       <use x="63.623046875" xlink:href="#BitstreamVeraSans-Roman-30"/>
       <use x="127.24609375" xlink:href="#BitstreamVeraSans-Roman-30"/>
       <use x="190.869140625" xlink:href="#BitstreamVeraSans-Roman-2c"/>
       <use x="222.65625" xlink:href="#BitstreamVeraSans-Roman-30"/>
       <use x="286.279296875" xlink:href="#BitstreamVeraSans-Roman-30"/>
       <use x="349.90234375" xlink:href="#BitstreamVeraSans-Roman-30"/>
      </g>
     </g>
    </g>
    <g id="text_20">
     <!-- Min. fee per kB (satoshi/kB) -->
     <defs>
      <path d="M 41.109375 46.296875 
Q 39.59375 47.171875 37.8125 47.578125 
Q 36.03125 48 33.890625 48 
Q 26.265625 48 22.1875 43.046875 
Q 18.109375 38.09375 18.109375 28.8125 
L 18.109375 0 
L 9.078125 0 
L 9.078125 54.6875 
L 18.109375 54.6875 
L 18.109375 46.1875 
Q 20.953125 51.171875 25.484375 53.578125 
Q 30.03125 56 36.53125 56 
Q 37.453125 56 38.578125 55.875 
Q 39.703125 55.765625 41.0625 55.515625 
z
" id="BitstreamVeraSans-Roman-72"/>
      <path d="M 9.078125 75.984375 
L 18.109375 75.984375 
L 18.109375 31.109375 
L 44.921875 54.6875 
L 56.390625 54.6875 
L 27.390625 29.109375 
L 57.625 0 
L 45.90625 0 
L 18.109375 26.703125 
L 18.109375 0 
L 9.078125 0 
z
" id="BitstreamVeraSans-Roman-6b"/>
      <path d="M 54.890625 33.015625 
L 54.890625 0 
L 45.90625 0 
L 45.90625 32.71875 
Q 45.90625 40.484375 42.875 44.328125 
Q 39.84375 48.1875 33.796875 48.1875 
Q 26.515625 48.1875 22.3125 43.546875 
Q 18.109375 38.921875 18.109375 30.90625 
L 18.109375 0 
L 9.078125 0 
L 9.078125 75.984375 
L 18.109375 75.984375 
L 18.109375 46.1875 
Q 21.34375 51.125 25.703125 53.5625 
Q 30.078125 56 35.796875 56 
Q 45.21875 56 50.046875 50.171875 
Q 54.890625 44.34375 54.890625 33.015625 
" id="BitstreamVeraSans-Roman-68"/>
      <path d="M 25.390625 72.90625 
L 33.6875 72.90625 
L 8.296875 -9.28125 
L 0 -9.28125 
z
" id="BitstreamVeraSans-Roman-2f"/>
      <path d="M 37.109375 75.984375 
L 37.109375 68.5 
L 28.515625 68.5 
Q 23.6875 68.5 21.796875 66.546875 
Q 19.921875 64.59375 19.921875 59.515625 
L 19.921875 54.6875 
L 34.71875 54.6875 
L 34.71875 47.703125 
L 19.921875 47.703125 
L 19.921875 0 
L 10.890625 0 
L 10.890625 47.703125 
L 2.296875 47.703125 
L 2.296875 54.6875 
L 10.890625 54.6875 
L 10.890625 58.5 
Q 10.890625 67.625 15.140625 71.796875 
Q 19.390625 75.984375 28.609375 75.984375 
z
" id="BitstreamVeraSans-Roman-66"/>
      <path d="M 34.28125 27.484375 
Q 23.390625 27.484375 19.1875 25 
Q 14.984375 22.515625 14.984375 16.5 
Q 14.984375 11.71875 18.140625 8.90625 
Q 21.296875 6.109375 26.703125 6.109375 
Q 34.1875 6.109375 38.703125 11.40625 
Q 43.21875 16.703125 43.21875 25.484375 
L 43.21875 27.484375 
z
M 52.203125 31.203125 
L 52.203125 0 
L 43.21875 0 
L 43.21875 8.296875 
Q 40.140625 3.328125 35.546875 0.953125 
Q 30.953125 -1.421875 24.3125 -1.421875 
Q 15.921875 -1.421875 10.953125 3.296875 
Q 6 8.015625 6 15.921875 
Q 6 25.140625 12.171875 29.828125 
Q 18.359375 34.515625 30.609375 34.515625 
L 43.21875 34.515625 
L 43.21875 35.40625 
Q 43.21875 41.609375 39.140625 45 
Q 35.0625 48.390625 27.6875 48.390625 
Q 23 48.390625 18.546875 47.265625 
Q 14.109375 46.140625 10.015625 43.890625 
L 10.015625 52.203125 
Q 14.9375 54.109375 19.578125 55.046875 
Q 24.21875 56 28.609375 56 
Q 40.484375 56 46.34375 49.84375 
Q 52.203125 43.703125 52.203125 31.203125 
" id="BitstreamVeraSans-Roman-61"/>
     </defs>
     <g transform="translate(910.141875 244.95)rotate(-90.0)scale(0.12 -0.12)">
      <use xlink:href="#BitstreamVeraSans-Roman-4d"/>
      <use x="86.279296875" xlink:href="#BitstreamVeraSans-Roman-69"/>
      <use x="114.0625" xlink:href="#BitstreamVeraSans-Roman-6e"/>
      <use x="177.44140625" xlink:href="#BitstreamVeraSans-Roman-2e"/>
      <use x="209.228515625" xlink:href="#BitstreamVeraSans-Roman-20"/>
      <use x="241.015625" xlink:href="#BitstreamVeraSans-Roman-66"/>
      <use x="276.220703125" xlink:href="#BitstreamVeraSans-Roman-65"/>
      <use x="337.744140625" xlink:href="#BitstreamVeraSans-Roman-65"/>
      <use x="399.267578125" xlink:href="#BitstreamVeraSans-Roman-20"/>
      <use x="431.0546875" xlink:href="#BitstreamVeraSans-Roman-70"/>
      <use x="494.53125" xlink:href="#BitstreamVeraSans-Roman-65"/>
      <use x="556.0546875" xlink:href="#BitstreamVeraSans-Roman-72"/>
      <use x="597.16796875" xlink:href="#BitstreamVeraSans-Roman-20"/>
      <use x="628.955078125" xlink:href="#BitstreamVeraSans-Roman-6b"/>
      <use x="686.865234375" xlink:href="#BitstreamVeraSans-Roman-42"/>
      <use x="755.46875" xlink:href="#BitstreamVeraSans-Roman-20"/>
      <use x="787.255859375" xlink:href="#BitstreamVeraSans-Roman-28"/>
      <use x="826.26953125" xlink:href="#BitstreamVeraSans-Roman-73"/>
      <use x="878.369140625" xlink:href="#BitstreamVeraSans-Roman-61"/>
      <use x="939.6484375" xlink:href="#BitstreamVeraSans-Roman-74"/>
      <use x="978.857421875" xlink:href="#BitstreamVeraSans-Roman-6f"/>
      <use x="1040.0390625" xlink:href="#BitstreamVeraSans-Roman-73"/>
      <use x="1092.13867188" xlink:href="#BitstreamVeraSans-Roman-68"/>
      <use x="1155.51757812" xlink:href="#BitstreamVeraSans-Roman-69"/>
      <use x="1183.30078125" xlink:href="#BitstreamVeraSans-Roman-2f"/>
      <use x="1216.9921875" xlink:href="#BitstreamVeraSans-Roman-6b"/>
      <use x="1274.90234375" xlink:href="#BitstreamVeraSans-Roman-42"/>
      <use x="1343.50585938" xlink:href="#BitstreamVeraSans-Roman-29"/>
     </g>
    </g>
   </g>
   <g id="text_21">
    <!-- Min TX fee to confirm within K blocks (with 90% probability) -->
    <defs>
     <path d="M 72.703125 32.078125 
Q 68.453125 32.078125 66.03125 28.46875 
Q 63.625 24.859375 63.625 18.40625 
Q 63.625 12.0625 66.03125 8.421875 
Q 68.453125 4.78125 72.703125 4.78125 
Q 76.859375 4.78125 79.265625 8.421875 
Q 81.6875 12.0625 81.6875 18.40625 
Q 81.6875 24.8125 79.265625 28.4375 
Q 76.859375 32.078125 72.703125 32.078125 
M 72.703125 38.28125 
Q 80.421875 38.28125 84.953125 32.90625 
Q 89.5 27.546875 89.5 18.40625 
Q 89.5 9.28125 84.9375 3.921875 
Q 80.375 -1.421875 72.703125 -1.421875 
Q 64.890625 -1.421875 60.34375 3.921875 
Q 55.8125 9.28125 55.8125 18.40625 
Q 55.8125 27.59375 60.375 32.9375 
Q 64.9375 38.28125 72.703125 38.28125 
M 22.3125 68.015625 
Q 18.109375 68.015625 15.6875 64.375 
Q 13.28125 60.75 13.28125 54.390625 
Q 13.28125 47.953125 15.671875 44.328125 
Q 18.0625 40.71875 22.3125 40.71875 
Q 26.5625 40.71875 28.96875 44.328125 
Q 31.390625 47.953125 31.390625 54.390625 
Q 31.390625 60.6875 28.953125 64.34375 
Q 26.515625 68.015625 22.3125 68.015625 
M 66.40625 74.21875 
L 74.21875 74.21875 
L 28.609375 -1.421875 
L 20.796875 -1.421875 
z
M 22.3125 74.21875 
Q 30.03125 74.21875 34.609375 68.875 
Q 39.203125 63.53125 39.203125 54.390625 
Q 39.203125 45.171875 34.640625 39.84375 
Q 30.078125 34.515625 22.3125 34.515625 
Q 14.546875 34.515625 10.03125 39.859375 
Q 5.515625 45.21875 5.515625 54.390625 
Q 5.515625 63.484375 10.046875 68.84375 
Q 14.59375 74.21875 22.3125 74.21875 
" id="BitstreamVeraSans-Roman-25"/>
     <path d="M 9.8125 72.90625 
L 19.671875 72.90625 
L 19.671875 42.09375 
L 52.390625 72.90625 
L 65.09375 72.90625 
L 28.90625 38.921875 
L 67.671875 0 
L 54.6875 0 
L 19.671875 35.109375 
L 19.671875 0 
L 9.8125 0 
z
" id="BitstreamVeraSans-Roman-4b"/>
     <path d="M 10.984375 1.515625 
L 10.984375 10.5 
Q 14.703125 8.734375 18.5 7.8125 
Q 22.3125 6.890625 25.984375 6.890625 
Q 35.75 6.890625 40.890625 13.453125 
Q 46.046875 20.015625 46.78125 33.40625 
Q 43.953125 29.203125 39.59375 26.953125 
Q 35.25 24.703125 29.984375 24.703125 
Q 19.046875 24.703125 12.671875 31.3125 
Q 6.296875 37.9375 6.296875 49.421875 
Q 6.296875 60.640625 12.9375 67.421875 
Q 19.578125 74.21875 30.609375 74.21875 
Q 43.265625 74.21875 49.921875 64.515625 
Q 56.59375 54.828125 56.59375 36.375 
Q 56.59375 19.140625 48.40625 8.859375 
Q 40.234375 -1.421875 26.421875 -1.421875 
Q 22.703125 -1.421875 18.890625 -0.6875 
Q 15.09375 0.046875 10.984375 1.515625 
M 30.609375 32.421875 
Q 37.25 32.421875 41.125 36.953125 
Q 45.015625 41.5 45.015625 49.421875 
Q 45.015625 57.28125 41.125 61.84375 
Q 37.25 66.40625 30.609375 66.40625 
Q 23.96875 66.40625 20.09375 61.84375 
Q 16.21875 57.28125 16.21875 49.421875 
Q 16.21875 41.5 20.09375 36.953125 
Q 23.96875 32.421875 30.609375 32.421875 
" id="BitstreamVeraSans-Roman-39"/>
     <path d="M -0.296875 72.90625 
L 61.375 72.90625 
L 61.375 64.59375 
L 35.5 64.59375 
L 35.5 0 
L 25.59375 0 
L 25.59375 64.59375 
L -0.296875 64.59375 
z
" id="BitstreamVeraSans-Roman-54"/>
     <path d="M 32.171875 -5.078125 
Q 28.375 -14.84375 24.75 -17.8125 
Q 21.140625 -20.796875 15.09375 -20.796875 
L 7.90625 -20.796875 
L 7.90625 -13.28125 
L 13.1875 -13.28125 
Q 16.890625 -13.28125 18.9375 -11.515625 
Q 21 -9.765625 23.484375 -3.21875 
L 25.09375 0.875 
L 2.984375 54.6875 
L 12.5 54.6875 
L 29.59375 11.921875 
L 46.6875 54.6875 
L 56.203125 54.6875 
z
" id="BitstreamVeraSans-Roman-79"/>
     <path d="M 6.296875 72.90625 
L 16.890625 72.90625 
L 35.015625 45.796875 
L 53.21875 72.90625 
L 63.8125 72.90625 
L 40.375 37.890625 
L 65.375 0 
L 54.78125 0 
L 34.28125 31 
L 13.625 0 
L 2.984375 0 
L 29 38.921875 
z
" id="BitstreamVeraSans-Roman-58"/>
     <path d="M 4.203125 54.6875 
L 13.1875 54.6875 
L 24.421875 12.015625 
L 35.59375 54.6875 
L 46.1875 54.6875 
L 57.421875 12.015625 
L 68.609375 54.6875 
L 77.59375 54.6875 
L 63.28125 0 
L 52.6875 0 
L 40.921875 44.828125 
L 29.109375 0 
L 18.5 0 
z
" id="BitstreamVeraSans-Roman-77"/>
     <path d="M 48.6875 27.296875 
Q 48.6875 37.203125 44.609375 42.84375 
Q 40.53125 48.484375 33.40625 48.484375 
Q 26.265625 48.484375 22.1875 42.84375 
Q 18.109375 37.203125 18.109375 27.296875 
Q 18.109375 17.390625 22.1875 11.75 
Q 26.265625 6.109375 33.40625 6.109375 
Q 40.53125 6.109375 44.609375 11.75 
Q 48.6875 17.390625 48.6875 27.296875 
M 18.109375 46.390625 
Q 20.953125 51.265625 25.265625 53.625 
Q 29.59375 56 35.59375 56 
Q 45.5625 56 51.78125 48.09375 
Q 58.015625 40.1875 58.015625 27.296875 
Q 58.015625 14.40625 51.78125 6.484375 
Q 45.5625 -1.421875 35.59375 -1.421875 
Q 29.59375 -1.421875 25.265625 0.953125 
Q 20.953125 3.328125 18.109375 8.203125 
L 18.109375 0 
L 9.078125 0 
L 9.078125 75.984375 
L 18.109375 75.984375 
z
" id="BitstreamVeraSans-Roman-62"/>
    </defs>
    <g transform="translate(263.772 31.0)scale(0.144 -0.144)">
     <use xlink:href="#BitstreamVeraSans-Roman-4d"/>
     <use x="86.279296875" xlink:href="#BitstreamVeraSans-Roman-69"/>
     <use x="114.0625" xlink:href="#BitstreamVeraSans-Roman-6e"/>
     <use x="177.44140625" xlink:href="#BitstreamVeraSans-Roman-20"/>
     <use x="209.228515625" xlink:href="#BitstreamVeraSans-Roman-54"/>
     <use x="270.3125" xlink:href="#BitstreamVeraSans-Roman-58"/>
     <use x="338.818359375" xlink:href="#BitstreamVeraSans-Roman-20"/>
     <use x="370.60546875" xlink:href="#BitstreamVeraSans-Roman-66"/>
     <use x="405.810546875" xlink:href="#BitstreamVeraSans-Roman-65"/>
     <use x="467.333984375" xlink:href="#BitstreamVeraSans-Roman-65"/>
     <use x="528.857421875" xlink:href="#BitstreamVeraSans-Roman-20"/>
     <use x="560.64453125" xlink:href="#BitstreamVeraSans-Roman-74"/>
     <use x="599.853515625" xlink:href="#BitstreamVeraSans-Roman-6f"/>
     <use x="661.03515625" xlink:href="#BitstreamVeraSans-Roman-20"/>
     <use x="692.822265625" xlink:href="#BitstreamVeraSans-Roman-63"/>
     <use x="747.802734375" xlink:href="#BitstreamVeraSans-Roman-6f"/>
     <use x="808.984375" xlink:href="#BitstreamVeraSans-Roman-6e"/>
     <use x="872.36328125" xlink:href="#BitstreamVeraSans-Roman-66"/>
     <use x="907.568359375" xlink:href="#BitstreamVeraSans-Roman-69"/>
     <use x="935.3515625" xlink:href="#BitstreamVeraSans-Roman-72"/>
     <use x="976.44921875" xlink:href="#BitstreamVeraSans-Roman-6d"/>
     <use x="1073.86132812" xlink:href="#BitstreamVeraSans-Roman-20"/>
     <use x="1105.6484375" xlink:href="#BitstreamVeraSans-Roman-77"/>
     <use x="1187.43554688" xlink:href="#BitstreamVeraSans-Roman-69"/>
     <use x="1215.21875" xlink:href="#BitstreamVeraSans-Roman-74"/>
     <use x="1254.42773438" xlink:href="#BitstreamVeraSans-Roman-68"/>
     <use x="1317.80664062" xlink:href="#BitstreamVeraSans-Roman-69"/>
     <use x="1345.58984375" xlink:href="#BitstreamVeraSans-Roman-6e"/>
     <use x="1408.96875" xlink:href="#BitstreamVeraSans-Roman-20"/>
     <use x="1440.75585938" xlink:href="#BitstreamVeraSans-Roman-4b"/>
     <use x="1506.33203125" xlink:href="#BitstreamVeraSans-Roman-20"/>
     <use x="1538.11914062" xlink:href="#BitstreamVeraSans-Roman-62"/>
     <use x="1601.59570312" xlink:href="#BitstreamVeraSans-Roman-6c"/>
     <use x="1629.37890625" xlink:href="#BitstreamVeraSans-Roman-6f"/>
     <use x="1690.56054688" xlink:href="#BitstreamVeraSans-Roman-63"/>
     <use x="1745.54101562" xlink:href="#BitstreamVeraSans-Roman-6b"/>
     <use x="1803.45117188" xlink:href="#BitstreamVeraSans-Roman-73"/>
     <use x="1855.55078125" xlink:href="#BitstreamVeraSans-Roman-20"/>
     <use x="1887.33789062" xlink:href="#BitstreamVeraSans-Roman-28"/>
     <use x="1926.3515625" xlink:href="#BitstreamVeraSans-Roman-77"/>
     <use x="2008.13867188" xlink:href="#BitstreamVeraSans-Roman-69"/>
     <use x="2035.921875" xlink:href="#BitstreamVeraSans-Roman-74"/>
     <use x="2075.13085938" xlink:href="#BitstreamVeraSans-Roman-68"/>
     <use x="2138.50976562" xlink:href="#BitstreamVeraSans-Roman-20"/>
     <use x="2170.296875" xlink:href="#BitstreamVeraSans-Roman-39"/>
     <use x="2233.91992188" xlink:href="#BitstreamVeraSans-Roman-30"/>
     <use x="2297.54296875" xlink:href="#BitstreamVeraSans-Roman-25"/>
     <use x="2392.5625" xlink:href="#BitstreamVeraSans-Roman-20"/>
     <use x="2424.34960938" xlink:href="#BitstreamVeraSans-Roman-70"/>
     <use x="2487.82617188" xlink:href="#BitstreamVeraSans-Roman-72"/>
     <use x="2528.90820312" xlink:href="#BitstreamVeraSans-Roman-6f"/>
     <use x="2590.08984375" xlink:href="#BitstreamVeraSans-Roman-62"/>
     <use x="2653.56640625" xlink:href="#BitstreamVeraSans-Roman-61"/>
     <use x="2714.84570312" xlink:href="#BitstreamVeraSans-Roman-62"/>
     <use x="2778.32226562" xlink:href="#BitstreamVeraSans-Roman-69"/>
     <use x="2806.10546875" xlink:href="#BitstreamVeraSans-Roman-6c"/>
     <use x="2833.88867188" xlink:href="#BitstreamVeraSans-Roman-69"/>
     <use x="2861.671875" xlink:href="#BitstreamVeraSans-Roman-74"/>
     <use x="2900.88085938" xlink:href="#BitstreamVeraSans-Roman-79"/>
     <use x="2960.06054688" xlink:href="#BitstreamVeraSans-Roman-29"/>
    </g>
   </g>
   <g id="legend_1">
    <g id="patch_11">
     <path d="M 121.998 117.358069 
L 232.745871 117.358069 
L 232.745871 40.998 
L 121.998 40.998 
z
" style="fill:#ffffff;stroke:#000000;stroke-linejoin:miter;"/>
    </g>
    <g id="line2d_36">
     <path d="M 128.9952 49.093198 
L 142.9896 49.093198 
" style="fill:none;stroke:#808080;stroke-linecap:square;"/>
    </g>
    <g id="line2d_37"/>
    <g id="text_22">
     <!-- mempool -->
     <g transform="translate(153.9852 52.591798125)scale(0.09996 -0.09996)">
      <use xlink:href="#BitstreamVeraSans-Roman-6d"/>
      <use x="97.412109375" xlink:href="#BitstreamVeraSans-Roman-65"/>
      <use x="158.935546875" xlink:href="#BitstreamVeraSans-Roman-6d"/>
      <use x="256.34765625" xlink:href="#BitstreamVeraSans-Roman-70"/>
      <use x="319.82421875" xlink:href="#BitstreamVeraSans-Roman-6f"/>
      <use x="381.005859375" xlink:href="#BitstreamVeraSans-Roman-6f"/>
      <use x="442.1875" xlink:href="#BitstreamVeraSans-Roman-6c"/>
     </g>
    </g>
    <g id="line2d_38">
     <path d="M 128.9952 63.765452 
L 142.9896 63.765452 
" style="fill:none;stroke:#0000ff;stroke-linecap:square;"/>
    </g>
    <g id="line2d_39"/>
    <g id="text_23">
     <!-- within 1 block -->
     <g transform="translate(153.9852 67.264051875)scale(0.09996 -0.09996)">
      <use xlink:href="#BitstreamVeraSans-Roman-77"/>
      <use x="81.787109375" xlink:href="#BitstreamVeraSans-Roman-69"/>
      <use x="109.5703125" xlink:href="#BitstreamVeraSans-Roman-74"/>
      <use x="148.779296875" xlink:href="#BitstreamVeraSans-Roman-68"/>
      <use x="212.158203125" xlink:href="#BitstreamVeraSans-Roman-69"/>
      <use x="239.94140625" xlink:href="#BitstreamVeraSans-Roman-6e"/>
      <use x="303.3203125" xlink:href="#BitstreamVeraSans-Roman-20"/>
      <use x="335.107421875" xlink:href="#BitstreamVeraSans-Roman-31"/>
      <use x="398.73046875" xlink:href="#BitstreamVeraSans-Roman-20"/>
      <use x="430.517578125" xlink:href="#BitstreamVeraSans-Roman-62"/>
      <use x="493.994140625" xlink:href="#BitstreamVeraSans-Roman-6c"/>
      <use x="521.77734375" xlink:href="#BitstreamVeraSans-Roman-6f"/>
      <use x="582.958984375" xlink:href="#BitstreamVeraSans-Roman-63"/>
      <use x="637.939453125" xlink:href="#BitstreamVeraSans-Roman-6b"/>
     </g>
    </g>
    <g id="line2d_40">
     <path d="M 128.9952 78.437706 
L 142.9896 78.437706 
" style="fill:none;stroke:#ffa500;stroke-linecap:square;"/>
    </g>
    <g id="line2d_41"/>
    <g id="text_24">
     <!-- within 2 blocks -->
     <g transform="translate(153.9852 81.936305625)scale(0.09996 -0.09996)">
      <use xlink:href="#BitstreamVeraSans-Roman-77"/>
      <use x="81.787109375" xlink:href="#BitstreamVeraSans-Roman-69"/>
      <use x="109.5703125" xlink:href="#BitstreamVeraSans-Roman-74"/>
      <use x="148.779296875" xlink:href="#BitstreamVeraSans-Roman-68"/>
      <use x="212.158203125" xlink:href="#BitstreamVeraSans-Roman-69"/>
      <use x="239.94140625" xlink:href="#BitstreamVeraSans-Roman-6e"/>
      <use x="303.3203125" xlink:href="#BitstreamVeraSans-Roman-20"/>
      <use x="335.107421875" xlink:href="#BitstreamVeraSans-Roman-32"/>
      <use x="398.73046875" xlink:href="#BitstreamVeraSans-Roman-20"/>
      <use x="430.517578125" xlink:href="#BitstreamVeraSans-Roman-62"/>
      <use x="493.994140625" xlink:href="#BitstreamVeraSans-Roman-6c"/>
      <use x="521.77734375" xlink:href="#BitstreamVeraSans-Roman-6f"/>
      <use x="582.958984375" xlink:href="#BitstreamVeraSans-Roman-63"/>
      <use x="637.939453125" xlink:href="#BitstreamVeraSans-Roman-6b"/>
      <use x="695.849609375" xlink:href="#BitstreamVeraSans-Roman-73"/>
     </g>
    </g>
    <g id="line2d_42">
     <path d="M 128.9952 93.109959 
L 142.9896 93.109959 
" style="fill:none;stroke:#008000;stroke-linecap:square;"/>
    </g>
    <g id="line2d_43"/>
    <g id="text_25">
     <!-- within 3 blocks -->
     <defs>
      <path d="M 40.578125 39.3125 
Q 47.65625 37.796875 51.625 33 
Q 55.609375 28.21875 55.609375 21.1875 
Q 55.609375 10.40625 48.1875 4.484375 
Q 40.765625 -1.421875 27.09375 -1.421875 
Q 22.515625 -1.421875 17.65625 -0.515625 
Q 12.796875 0.390625 7.625 2.203125 
L 7.625 11.71875 
Q 11.71875 9.328125 16.59375 8.109375 
Q 21.484375 6.890625 26.8125 6.890625 
Q 36.078125 6.890625 40.9375 10.546875 
Q 45.796875 14.203125 45.796875 21.1875 
Q 45.796875 27.640625 41.28125 31.265625 
Q 36.765625 34.90625 28.71875 34.90625 
L 20.21875 34.90625 
L 20.21875 43.015625 
L 29.109375 43.015625 
Q 36.375 43.015625 40.234375 45.921875 
Q 44.09375 48.828125 44.09375 54.296875 
Q 44.09375 59.90625 40.109375 62.90625 
Q 36.140625 65.921875 28.71875 65.921875 
Q 24.65625 65.921875 20.015625 65.03125 
Q 15.375 64.15625 9.8125 62.3125 
L 9.8125 71.09375 
Q 15.4375 72.65625 20.34375 73.4375 
Q 25.25 74.21875 29.59375 74.21875 
Q 40.828125 74.21875 47.359375 69.109375 
Q 53.90625 64.015625 53.90625 55.328125 
Q 53.90625 49.265625 50.4375 45.09375 
Q 46.96875 40.921875 40.578125 39.3125 
" id="BitstreamVeraSans-Roman-33"/>
     </defs>
     <g transform="translate(153.9852 96.608559375)scale(0.09996 -0.09996)">
      <use xlink:href="#BitstreamVeraSans-Roman-77"/>
      <use x="81.787109375" xlink:href="#BitstreamVeraSans-Roman-69"/>
      <use x="109.5703125" xlink:href="#BitstreamVeraSans-Roman-74"/>
      <use x="148.779296875" xlink:href="#BitstreamVeraSans-Roman-68"/>
      <use x="212.158203125" xlink:href="#BitstreamVeraSans-Roman-69"/>
      <use x="239.94140625" xlink:href="#BitstreamVeraSans-Roman-6e"/>
      <use x="303.3203125" xlink:href="#BitstreamVeraSans-Roman-20"/>
      <use x="335.107421875" xlink:href="#BitstreamVeraSans-Roman-33"/>
      <use x="398.73046875" xlink:href="#BitstreamVeraSans-Roman-20"/>
      <use x="430.517578125" xlink:href="#BitstreamVeraSans-Roman-62"/>
      <use x="493.994140625" xlink:href="#BitstreamVeraSans-Roman-6c"/>
      <use x="521.77734375" xlink:href="#BitstreamVeraSans-Roman-6f"/>
      <use x="582.958984375" xlink:href="#BitstreamVeraSans-Roman-63"/>
      <use x="637.939453125" xlink:href="#BitstreamVeraSans-Roman-6b"/>
      <use x="695.849609375" xlink:href="#BitstreamVeraSans-Roman-73"/>
     </g>
    </g>
    <g id="line2d_44">
     <path d="M 128.9952 107.782213 
L 142.9896 107.782213 
" style="fill:none;stroke:#ff0000;stroke-linecap:square;"/>
    </g>
    <g id="line2d_45"/>
    <g id="text_26">
     <!-- within 6 blocks -->
     <g transform="translate(153.9852 111.280813125)scale(0.09996 -0.09996)">
      <use xlink:href="#BitstreamVeraSans-Roman-77"/>
      <use x="81.787109375" xlink:href="#BitstreamVeraSans-Roman-69"/>
      <use x="109.5703125" xlink:href="#BitstreamVeraSans-Roman-74"/>
      <use x="148.779296875" xlink:href="#BitstreamVeraSans-Roman-68"/>
      <use x="212.158203125" xlink:href="#BitstreamVeraSans-Roman-69"/>
      <use x="239.94140625" xlink:href="#BitstreamVeraSans-Roman-6e"/>
      <use x="303.3203125" xlink:href="#BitstreamVeraSans-Roman-20"/>
      <use x="335.107421875" xlink:href="#BitstreamVeraSans-Roman-36"/>
      <use x="398.73046875" xlink:href="#BitstreamVeraSans-Roman-20"/>
      <use x="430.517578125" xlink:href="#BitstreamVeraSans-Roman-62"/>
      <use x="493.994140625" xlink:href="#BitstreamVeraSans-Roman-6c"/>
      <use x="521.77734375" xlink:href="#BitstreamVeraSans-Roman-6f"/>
      <use x="582.958984375" xlink:href="#BitstreamVeraSans-Roman-63"/>
      <use x="637.939453125" xlink:href="#BitstreamVeraSans-Roman-6b"/>
      <use x="695.849609375" xlink:href="#BitstreamVeraSans-Roman-73"/>
     </g>
    </g>
   </g>
  </g>
 </g>
 <defs>
  <clipPath id="p7f15c55fa9">
   <rect height="252.0" width="725.4" x="117.0" y="36.0"/>
  </clipPath>
 </defs>
</svg>
